<svg width="24" height="25" viewBox="0 0 24 25" fill="none" xmlns="http://www.w3.org/2000/svg">
<path d="M20.668 3.68408H3.33202C1.49189 3.68408 0 5.17597 0 7.0161V17.9841C0 19.8242 1.49189 21.3161 3.33202 21.3161H20.668C22.5081 21.3161 24 19.8242 24 17.9841V7.0161C24 5.17597 22.5081 3.68408 20.668 3.68408ZM8.35153 15.5807L3.68559 19.5613C3.35648 19.8422 2.86172 19.8032 2.58089 19.4737C2.30002 19.1446 2.33906 18.6499 2.66855 18.369L7.33448 14.3884C7.66355 14.1075 8.15827 14.1466 8.43914 14.4761C8.72002 14.8051 8.68097 15.2999 8.35153 15.5807ZM12 14.0674C11.3759 14.0659 10.7709 13.8585 10.298 13.4495L10.2983 13.4498L10.2968 13.4487C10.2972 13.4491 10.2976 13.4491 10.298 13.4495L3.13884 7.23575C2.81166 6.95179 2.77683 6.45707 3.06038 6.1303C3.3443 5.80311 3.83906 5.76829 4.16578 6.05183L11.3269 12.2671C11.48 12.4033 11.7322 12.5016 12 12.5001C12.2675 12.5009 12.5154 12.4052 12.6769 12.2644L12.6803 12.2614L19.8342 6.05188C20.1609 5.76833 20.6557 5.80316 20.9396 6.13035C21.2231 6.45707 21.1883 6.95183 20.8612 7.2358L13.7001 13.4514C13.2286 13.8561 12.6245 14.0666 12 14.0674ZM21.4194 19.4737C21.1386 19.8032 20.6438 19.8422 20.3148 19.5613L15.6488 15.5807C15.3194 15.2998 15.2804 14.8051 15.5612 14.4761C15.8421 14.1466 16.3368 14.1076 16.6659 14.3884L21.3318 18.369C21.6613 18.6499 21.7003 19.1446 21.4194 19.4737Z" fill="#002699"/>
</svg>
