<svg width="29" height="29" viewBox="0 0 29 29" fill="none" xmlns="http://www.w3.org/2000/svg">
<path fill-rule="evenodd" clip-rule="evenodd" d="M26.5837 14.4993C26.5837 21.1727 21.1737 26.5827 14.5003 26.5827C7.82688 26.5827 2.41699 21.1727 2.41699 14.4993C2.41699 7.8259 7.82688 2.41602 14.5003 2.41602C21.1737 2.41602 26.5837 7.8259 26.5837 14.4993ZM19.3703 10.8377C19.7242 11.1916 19.7242 11.7654 19.3703 12.1193L13.3286 18.161C12.9747 18.5149 12.401 18.5149 12.047 18.161L9.63034 15.7443C9.27643 15.3904 9.27643 14.8167 9.63034 14.4627C9.98425 14.1088 10.5581 14.1088 10.912 14.4627L12.6878 16.2385L15.3882 13.5381L18.0887 10.8377C18.4426 10.4838 19.0163 10.4838 19.3703 10.8377Z" fill="#6BC327"/>
</svg>
