<svg width="41" height="28" viewBox="0 0 41 28" fill="none" xmlns="http://www.w3.org/2000/svg">
<path d="M20.7623 16.3643L23.5735 18.1591L20.7623 22.5735C20.1039 22.5735 19.4455 22.3219 18.9431 21.8195L14.1861 17.0617L4.012 27.2358C3.51281 27.735 2.70233 27.735 2.20314 27.2358L0.375965 25.4078C-0.12402 24.9086 -0.12402 24.0981 0.375965 23.599L12.3668 11.6065C13.3716 10.6025 14.9997 10.6025 16.0045 11.6065L20.7623 16.3643Z" fill="#66E6FF"/>
<path d="M40.7645 1.27942V14.2647C40.7645 14.9709 40.192 15.5441 39.4851 15.5441H36.9007C36.1938 15.5441 35.6213 14.9709 35.6213 14.2647V8.77999L22.5811 21.8202C22.0787 22.3226 21.4211 22.5742 20.7627 22.5742V16.365L31.9853 5.14316H26.5006C25.7944 5.14316 25.2212 4.56993 25.2212 3.86374V1.27942C25.2212 0.572435 25.7944 0 26.5006 0H39.4851C40.192 0 40.7645 0.572435 40.7645 1.27942Z" fill="#4DC3FF"/>
</svg>
