<svg width="52" height="52" viewBox="0 0 52 52" fill="none" xmlns="http://www.w3.org/2000/svg">
<path d="M26.7618 28.3643L29.573 30.1591L26.7618 34.5735C26.1034 34.5735 25.445 34.3219 24.9426 33.8195L20.1856 29.0617L10.0115 39.2358C9.51233 39.735 8.70184 39.735 8.20265 39.2358L6.37548 37.4078C5.87549 36.9086 5.87549 36.0981 6.37548 35.599L18.3664 23.6065C19.3711 22.6025 20.9992 22.6025 22.004 23.6065L26.7618 28.3643Z" fill="#8D73B2"/>
<path d="M46.764 13.2794V26.2647C46.764 26.9709 46.1916 27.5441 45.4846 27.5441H42.9003C42.1933 27.5441 41.6208 26.9709 41.6208 26.2647V20.78L28.5806 33.8202C28.0782 34.3226 27.4206 34.5742 26.7622 34.5742V28.365L37.9848 17.1432H32.5001C31.7939 17.1432 31.2207 16.5699 31.2207 15.8637V13.2794C31.2207 12.5724 31.7939 12 32.5001 12H45.4846C46.1916 12 46.764 12.5724 46.764 13.2794Z" fill="#8D73B2"/>
</svg>
