<svg width="561" height="62" viewBox="0 0 561 62" fill="none" xmlns="http://www.w3.org/2000/svg">
<path fill-rule="evenodd" clip-rule="evenodd" d="M30.8253 53.0012C30.4826 53.0012 29.8236 52.8167 29.5072 51.5777L26.1329 39.0557C26.0538 38.7394 26.2647 38.423 26.581 38.3966C28.1628 38.1857 29.6127 37.3949 30.6144 36.1559C30.7462 36.0241 30.9044 35.9713 31.0626 35.9713C32.3807 36.1031 33.6988 35.8132 34.8324 35.1541C35.1224 34.9696 35.5178 35.1277 35.5969 35.4705L39.2348 48.9678C39.7357 50.8132 38.444 51.5777 36.8886 50.5232L33.8833 48.4933L32.3016 51.7359C31.9062 52.5531 31.3789 53.0012 30.8253 53.0012Z" fill="#FA3C48"/>
<path fill-rule="evenodd" clip-rule="evenodd" d="M20.6768 53.0012C20.0969 53.0012 19.5696 52.5531 19.2005 51.7359L17.6188 48.4933L14.6135 50.5232C13.0318 51.5777 11.7664 50.8132 12.2673 48.9678L15.8789 35.4705C15.9844 35.1277 16.3534 34.9696 16.6698 35.1541C17.777 35.8132 19.1215 36.1031 20.4132 35.9713C20.5977 35.9713 20.7559 36.0241 20.8614 36.1559C21.8895 37.3949 23.3394 38.1857 24.9211 38.3966C25.2111 38.423 25.422 38.7394 25.3429 39.0557L21.9949 51.5777C21.6522 52.8167 21.0195 53.0012 20.6768 53.0012Z" fill="#FA3C48"/>
<path fill-rule="evenodd" clip-rule="evenodd" d="M25.7381 39.5027C23.6292 39.5027 21.652 38.6064 20.2285 37.051C15.8524 37.2619 12.2144 33.6503 12.4517 29.2478C9.18278 26.3216 9.18278 21.181 12.4517 18.2548C12.2144 13.8524 15.8524 10.2144 20.2285 10.4517C23.181 7.18278 28.3216 7.18278 31.2478 10.4517C35.6503 10.2144 39.2619 13.8524 39.051 18.2548C42.3199 21.181 42.3199 26.3216 39.051 29.2478C39.2619 33.6503 35.6503 37.2619 31.2478 37.051C29.8506 38.6064 27.8471 39.5027 25.7381 39.5027Z" fill="#FFCB29"/>
<path fill-rule="evenodd" clip-rule="evenodd" d="M25.7384 37.1293C24.2357 37.1293 22.8385 36.4703 21.8631 35.3103L21.2568 34.5986L20.3078 34.6776C17.1707 34.9413 14.5345 32.3051 14.8245 29.1943L14.9036 28.2453L14.1654 27.6126C11.7665 25.6091 11.7665 21.892 14.1654 19.8885L14.9036 19.2558L14.8245 18.3068C14.5345 15.1961 17.1707 12.5335 20.3078 12.8235L21.2568 12.9026L21.8631 12.1644C23.893 9.7655 27.6101 9.7655 29.6136 12.1644L30.2463 12.9026L31.1953 12.8235C34.306 12.5599 36.9422 15.1961 36.6786 18.3068L36.5732 19.2558L37.3113 19.8885C39.7366 21.892 39.7366 25.6091 37.3113 27.6126L36.5732 28.2453L36.6786 29.1943C36.9422 32.3314 34.306 34.9413 31.1953 34.6776L30.2463 34.5986L29.6136 35.3103C28.6646 36.4703 27.241 37.1293 25.7384 37.1293Z" fill="#FFA725"/>
<path fill-rule="evenodd" clip-rule="evenodd" d="M25.7376 32.0427C21.177 32.0427 17.46 28.3256 17.46 23.7386C17.46 19.178 21.177 15.4609 25.7376 15.4609C30.3246 15.4609 34.0417 19.178 34.0417 23.7386C34.0417 28.3256 30.3246 32.0427 25.7376 32.0427Z" fill="#FFCC00"/>
<path fill-rule="evenodd" clip-rule="evenodd" d="M25.7366 28.1422C25.4466 28.1422 25.2094 27.905 25.2094 27.615V21.1826C24.603 21.789 24.0494 22.6062 23.5222 22.1053C23.3377 21.8944 23.3377 21.5781 23.5222 21.3672L25.3675 19.5218C25.7102 19.2055 26.2638 19.4427 26.2638 19.8909V27.615C26.2638 27.905 26.0266 28.1422 25.7366 28.1422Z" fill="white"/>
<path fill-rule="evenodd" clip-rule="evenodd" d="M28.3207 28.1424H23.1537C22.4683 28.1424 22.4683 27.0879 23.1537 27.0879H28.3207C29.0324 27.0879 29.0324 28.1424 28.3207 28.1424Z" fill="white"/>
<path d="M70.88 31V12.12H64.48V8.6H81.008V12.12H74.592V31H70.88ZM88.1018 31.32C86.3951 31.32 84.9391 30.9467 83.7338 30.2C82.5391 29.4533 81.6218 28.456 80.9818 27.208C80.3524 25.96 80.0378 24.584 80.0378 23.08C80.0378 21.576 80.3524 20.1947 80.9818 18.936C81.6218 17.6773 82.5391 16.6747 83.7338 15.928C84.9391 15.1707 86.3951 14.792 88.1018 14.792C89.7978 14.792 91.2484 15.1707 92.4538 15.928C93.6591 16.6747 94.5764 17.6773 95.2058 18.936C95.8458 20.1947 96.1658 21.576 96.1658 23.08C96.1658 24.584 95.8458 25.96 95.2058 27.208C94.5764 28.456 93.6591 29.4533 92.4538 30.2C91.2484 30.9467 89.7978 31.32 88.1018 31.32ZM88.1018 28.312C89.5098 28.312 90.5924 27.8373 91.3498 26.888C92.1178 25.928 92.5018 24.6587 92.5018 23.08C92.5018 21.48 92.1178 20.2 91.3498 19.24C90.5924 18.28 89.5098 17.8 88.1018 17.8C86.6938 17.8 85.6058 18.28 84.8378 19.24C84.0698 20.2 83.6858 21.48 83.6858 23.08C83.6858 24.6587 84.0698 25.928 84.8378 26.888C85.6058 27.8373 86.6938 28.312 88.1018 28.312ZM98.9818 38.744V15.112H101.83L102.518 18.104L101.462 17.64C102.176 16.7867 102.982 16.1093 103.878 15.608C104.784 15.096 105.888 14.84 107.19 14.84C108.715 14.84 110 15.2133 111.046 15.96C112.102 16.7067 112.902 17.704 113.446 18.952C113.99 20.2 114.262 21.576 114.262 23.08C114.262 24.584 113.995 25.96 113.462 27.208C112.928 28.456 112.139 29.4533 111.094 30.2C110.048 30.9467 108.747 31.32 107.19 31.32C105.942 31.32 104.886 31.1173 104.022 30.712C103.168 30.3067 102.406 29.6773 101.734 28.824L102.55 28.104V38.744H98.9818ZM106.614 28.312C107.872 28.312 108.854 27.8373 109.558 26.888C110.262 25.928 110.614 24.6587 110.614 23.08C110.614 21.4907 110.262 20.2213 109.558 19.272C108.854 18.3227 107.872 17.848 106.614 17.848C105.718 17.848 104.95 18.0613 104.31 18.488C103.68 18.904 103.2 19.5013 102.87 20.28C102.539 21.0587 102.374 21.992 102.374 23.08C102.374 24.1893 102.539 25.1333 102.87 25.912C103.2 26.6907 103.68 27.288 104.31 27.704C104.95 28.1093 105.718 28.312 106.614 28.312ZM124.902 31V8.6H132.758C134.305 8.6 135.66 8.84533 136.822 9.336C137.985 9.816 138.886 10.5573 139.526 11.56C140.166 12.5627 140.486 13.8427 140.486 15.4C140.486 17 140.14 18.296 139.446 19.288C138.764 20.28 137.83 21.064 136.646 21.64L141.686 31H137.43L133.014 22.536C132.982 22.536 132.956 22.536 132.934 22.536C132.913 22.536 132.886 22.536 132.854 22.536H128.678V31H124.902ZM128.678 19.368H132.054C133.686 19.368 134.849 19.016 135.542 18.312C136.246 17.5973 136.598 16.6747 136.598 15.544C136.598 14.3493 136.252 13.4213 135.558 12.76C134.865 12.0987 133.729 11.768 132.15 11.768H128.678V19.368ZM147.424 31.32C146.528 31.32 145.723 31.128 145.008 30.744C144.293 30.36 143.728 29.816 143.312 29.112C142.907 28.408 142.704 27.576 142.704 26.616C142.704 25.72 142.907 24.952 143.312 24.312C143.728 23.6613 144.272 23.1227 144.944 22.696C145.627 22.2693 146.368 21.9333 147.168 21.688C147.979 21.432 148.789 21.2453 149.6 21.128C150.421 21.0107 151.168 20.9467 151.84 20.936C151.808 19.8053 151.547 19.0267 151.056 18.6C150.576 18.1627 149.813 17.944 148.768 17.944C148.096 17.944 147.424 18.04 146.752 18.232C146.08 18.424 145.317 18.76 144.464 19.24L144.096 16.328C144.939 15.8587 145.835 15.496 146.784 15.24C147.744 14.9733 148.725 14.84 149.728 14.84C150.976 14.84 152.021 15.0587 152.864 15.496C153.707 15.9333 154.341 16.6533 154.768 17.656C155.205 18.6587 155.424 19.9973 155.424 21.672V25.576C155.424 26.3547 155.461 26.9467 155.536 27.352C155.611 27.7573 155.755 28.0347 155.968 28.184C156.192 28.3333 156.528 28.408 156.976 28.408H157.408L157.024 31.32H156.032C155.307 31.32 154.704 31.2347 154.224 31.064C153.744 30.904 153.349 30.6747 153.04 30.376C152.741 30.0773 152.485 29.72 152.272 29.304C151.728 29.9227 151.024 30.4133 150.16 30.776C149.307 31.1387 148.395 31.32 147.424 31.32ZM148.672 28.552C149.173 28.552 149.723 28.424 150.32 28.168C150.917 27.9013 151.429 27.528 151.856 27.048V23.368C150.832 23.4 149.909 23.5333 149.088 23.768C148.267 23.992 147.616 24.328 147.136 24.776C146.667 25.2133 146.432 25.7733 146.432 26.456C146.432 27.1707 146.619 27.6987 146.992 28.04C147.376 28.3813 147.936 28.552 148.672 28.552ZM164.622 31.32C163.619 31.32 162.808 31.1227 162.19 30.728C161.571 30.3333 161.118 29.832 160.83 29.224C160.542 28.6053 160.398 27.96 160.398 27.288V18.008H157.965L158.286 15.112H160.398V11.464L163.966 11.096V15.112H167.71V18.008H163.966V25.608C163.966 26.4933 164.019 27.1333 164.126 27.528C164.232 27.912 164.478 28.1573 164.862 28.264C165.246 28.36 165.864 28.408 166.718 28.408H167.678L167.374 31.32H164.622ZM177.88 31.32C175.981 31.32 174.392 30.936 173.112 30.168C171.842 29.4 170.882 28.3867 170.232 27.128C169.592 25.8587 169.272 24.4667 169.272 22.952C169.272 21.4907 169.57 20.1467 170.168 18.92C170.776 17.6827 171.656 16.696 172.808 15.96C173.97 15.2133 175.378 14.84 177.032 14.84C178.482 14.84 179.72 15.1333 180.744 15.72C181.768 16.3067 182.546 17.1173 183.08 18.152C183.624 19.176 183.896 20.3493 183.896 21.672C183.896 21.9707 183.874 22.2853 183.832 22.616C183.8 22.936 183.752 23.2667 183.688 23.608H172.968C173.117 24.7707 173.442 25.6933 173.944 26.376C174.445 27.0587 175.069 27.5547 175.816 27.864C176.562 28.1627 177.368 28.312 178.232 28.312C179.085 28.312 179.906 28.2107 180.696 28.008C181.496 27.7947 182.237 27.5067 182.92 27.144L183.192 30.104C182.584 30.4027 181.832 30.68 180.936 30.936C180.04 31.192 179.021 31.32 177.88 31.32ZM173.128 21.176H180.248C180.248 20.6 180.136 20.0613 179.912 19.56C179.698 19.048 179.352 18.6373 178.872 18.328C178.402 18.008 177.784 17.848 177.016 17.848C175.896 17.848 175.021 18.152 174.392 18.76C173.773 19.368 173.352 20.1733 173.128 21.176ZM193.037 31.32C191.523 31.32 190.216 30.9467 189.117 30.2C188.029 29.4533 187.192 28.456 186.605 27.208C186.019 25.96 185.725 24.5893 185.725 23.096C185.725 21.6133 186.008 20.248 186.573 19C187.139 17.7413 187.965 16.7333 189.053 15.976C190.152 15.2187 191.48 14.84 193.037 14.84C194.168 14.84 195.165 15.048 196.029 15.464C196.904 15.8693 197.651 16.456 198.269 17.224L197.437 17.912V7H201.005V31H197.693L197.373 28.056L198.381 28.776C197.731 29.5867 196.973 30.216 196.109 30.664C195.245 31.1013 194.221 31.32 193.037 31.32ZM193.597 28.312C194.419 28.312 195.133 28.1093 195.741 27.704C196.349 27.2987 196.824 26.7067 197.165 25.928C197.507 25.1493 197.677 24.2053 197.677 23.096C197.677 22.008 197.507 21.0747 197.165 20.296C196.824 19.5067 196.349 18.904 195.741 18.488C195.133 18.0613 194.419 17.848 193.597 17.848C192.712 17.848 191.955 18.072 191.325 18.52C190.696 18.968 190.211 19.5867 189.869 20.376C189.539 21.1653 189.373 22.072 189.373 23.096C189.373 24.088 189.539 24.9787 189.869 25.768C190.211 26.5573 190.696 27.1813 191.325 27.64C191.955 28.088 192.712 28.312 193.597 28.312Z" fill="black"/>
<path d="M71.328 54.976H66.528V53.6H71.328V54.976ZM68.704 48.288H69.152L65.712 58H64.112L68.128 46.8H69.728L73.744 58H72.144L68.704 48.288ZM74.8354 61.872V50.16H75.9554L76.2114 51.952L75.8114 51.664C76.142 51.152 76.55 50.7467 77.0354 50.448C77.5207 50.1493 78.1154 50 78.8194 50C79.534 50 80.1474 50.1813 80.6594 50.544C81.1714 50.9067 81.5634 51.3973 81.8354 52.016C82.1074 52.6293 82.2434 53.3173 82.2434 54.08C82.2434 54.8427 82.1154 55.5333 81.8594 56.152C81.6034 56.7653 81.222 57.2533 80.7154 57.616C80.2087 57.9787 79.5767 58.16 78.8194 58.16C78.1954 58.16 77.63 58.032 77.1234 57.776C76.622 57.5147 76.2594 57.1253 76.0354 56.608L76.2754 56.32V61.872H74.8354ZM78.5474 56.88C79.246 56.88 79.79 56.6347 80.1794 56.144C80.574 55.648 80.7714 54.96 80.7714 54.08C80.7714 53.2 80.574 52.5147 80.1794 52.024C79.79 51.528 79.246 51.28 78.5474 51.28C78.1154 51.28 77.7207 51.384 77.3634 51.592C77.0114 51.7947 76.7287 52.104 76.5154 52.52C76.302 52.9307 76.1954 53.4507 76.1954 54.08C76.1954 54.736 76.302 55.2693 76.5154 55.68C76.7287 56.0907 77.0114 56.3947 77.3634 56.592C77.7207 56.784 78.1154 56.88 78.5474 56.88ZM83.7416 61.872V50.16H84.8616L85.1176 51.952L84.7176 51.664C85.0483 51.152 85.4563 50.7467 85.9416 50.448C86.427 50.1493 87.0216 50 87.7256 50C88.4403 50 89.0536 50.1813 89.5656 50.544C90.0776 50.9067 90.4696 51.3973 90.7416 52.016C91.0136 52.6293 91.1496 53.3173 91.1496 54.08C91.1496 54.8427 91.0216 55.5333 90.7656 56.152C90.5096 56.7653 90.1283 57.2533 89.6216 57.616C89.115 57.9787 88.483 58.16 87.7256 58.16C87.1016 58.16 86.5363 58.032 86.0296 57.776C85.5283 57.5147 85.1656 57.1253 84.9416 56.608L85.1816 56.32V61.872H83.7416ZM87.4536 56.88C88.1523 56.88 88.6963 56.6347 89.0856 56.144C89.4803 55.648 89.6776 54.96 89.6776 54.08C89.6776 53.2 89.4803 52.5147 89.0856 52.024C88.6963 51.528 88.1523 51.28 87.4536 51.28C87.0216 51.28 86.627 51.384 86.2696 51.592C85.9176 51.7947 85.635 52.104 85.4216 52.52C85.2083 52.9307 85.1016 53.4507 85.1016 54.08C85.1016 54.736 85.2083 55.2693 85.4216 55.68C85.635 56.0907 85.9176 56.3947 86.2696 56.592C86.627 56.784 87.0216 56.88 87.4536 56.88ZM99.6656 58.16C98.8443 58.16 98.143 57.9787 97.5616 57.616C96.9856 57.248 96.543 56.7573 96.2336 56.144C95.9296 55.5253 95.7776 54.8373 95.7776 54.08C95.7776 53.3227 95.9296 52.6373 96.2336 52.024C96.543 51.4053 96.9856 50.9147 97.5616 50.552C98.143 50.184 98.8443 50 99.6656 50C100.482 50 101.18 50.184 101.762 50.552C102.343 50.9147 102.786 51.4053 103.09 52.024C103.399 52.6373 103.554 53.3227 103.554 54.08C103.554 54.8373 103.399 55.5253 103.09 56.144C102.786 56.7573 102.343 57.248 101.762 57.616C101.18 57.9787 100.482 58.16 99.6656 58.16ZM99.6656 56.88C100.444 56.88 101.042 56.6347 101.458 56.144C101.874 55.648 102.082 54.96 102.082 54.08C102.082 53.2 101.874 52.5147 101.458 52.024C101.042 51.528 100.444 51.28 99.6656 51.28C98.8923 51.28 98.295 51.528 97.8736 52.024C97.4576 52.5147 97.2496 53.2 97.2496 54.08C97.2496 54.96 97.4576 55.648 97.8736 56.144C98.295 56.6347 98.8923 56.88 99.6656 56.88ZM105.039 58V50.16H106.159L106.447 51.664L105.887 51.424C106.415 50.8373 106.929 50.4533 107.431 50.272C107.937 50.0907 108.431 50 108.911 50C110.057 50 110.876 50.3307 111.367 50.992C111.863 51.6533 112.111 52.5493 112.111 53.68V58H110.671V53.68C110.671 52.848 110.516 52.24 110.207 51.856C109.897 51.472 109.369 51.28 108.623 51.28C108.095 51.28 107.609 51.3973 107.167 51.632C106.729 51.8613 106.441 52.2293 106.303 52.736L106.479 51.856V58H105.039ZM123.922 54.976H119.122V53.6H123.922V54.976ZM121.298 48.288H121.746L118.306 58H116.706L120.722 46.8H122.322L126.338 58H124.738L121.298 48.288ZM127.429 61.872V50.16H128.549L128.805 51.952L128.405 51.664C128.736 51.152 129.144 50.7467 129.629 50.448C130.114 50.1493 130.709 50 131.413 50C132.128 50 132.741 50.1813 133.253 50.544C133.765 50.9067 134.157 51.3973 134.429 52.016C134.701 52.6293 134.837 53.3173 134.837 54.08C134.837 54.8427 134.709 55.5333 134.453 56.152C134.197 56.7653 133.816 57.2533 133.309 57.616C132.802 57.9787 132.17 58.16 131.413 58.16C130.789 58.16 130.224 58.032 129.717 57.776C129.216 57.5147 128.853 57.1253 128.629 56.608L128.869 56.32V61.872H127.429ZM131.141 56.88C131.84 56.88 132.384 56.6347 132.773 56.144C133.168 55.648 133.365 54.96 133.365 54.08C133.365 53.2 133.168 52.5147 132.773 52.024C132.384 51.528 131.84 51.28 131.141 51.28C130.709 51.28 130.314 51.384 129.957 51.592C129.605 51.7947 129.322 52.104 129.109 52.52C128.896 52.9307 128.789 53.4507 128.789 54.08C128.789 54.736 128.896 55.2693 129.109 55.68C129.322 56.0907 129.605 56.3947 129.957 56.592C130.314 56.784 130.709 56.88 131.141 56.88ZM136.335 61.872V50.16H137.455L137.711 51.952L137.311 51.664C137.642 51.152 138.05 50.7467 138.535 50.448C139.021 50.1493 139.615 50 140.319 50C141.034 50 141.647 50.1813 142.159 50.544C142.671 50.9067 143.063 51.3973 143.335 52.016C143.607 52.6293 143.743 53.3173 143.743 54.08C143.743 54.8427 143.615 55.5333 143.359 56.152C143.103 56.7653 142.722 57.2533 142.215 57.616C141.709 57.9787 141.077 58.16 140.319 58.16C139.695 58.16 139.13 58.032 138.623 57.776C138.122 57.5147 137.759 57.1253 137.535 56.608L137.775 56.32V61.872H136.335ZM140.047 56.88C140.746 56.88 141.29 56.6347 141.679 56.144C142.074 55.648 142.271 54.96 142.271 54.08C142.271 53.2 142.074 52.5147 141.679 52.024C141.29 51.528 140.746 51.28 140.047 51.28C139.615 51.28 139.221 51.384 138.863 51.592C138.511 51.7947 138.229 52.104 138.015 52.52C137.802 52.9307 137.695 53.4507 137.695 54.08C137.695 54.736 137.802 55.2693 138.015 55.68C138.229 56.0907 138.511 56.3947 138.863 56.592C139.221 56.784 139.615 56.88 140.047 56.88ZM147.466 58.16C146.772 58.16 146.196 58.0773 145.738 57.912C145.284 57.7467 144.964 57.6 144.778 57.472L144.954 56.08C145.124 56.2293 145.426 56.4 145.858 56.592C146.29 56.784 146.804 56.88 147.402 56.88C147.908 56.88 148.295 56.7947 148.562 56.624C148.834 56.4533 148.97 56.2133 148.97 55.904C148.97 55.632 148.882 55.4133 148.706 55.248C148.535 55.0773 148.327 54.944 148.082 54.848C147.842 54.7467 147.615 54.6667 147.402 54.608C147.044 54.512 146.674 54.392 146.29 54.248C145.911 54.0987 145.591 53.8773 145.33 53.584C145.068 53.2907 144.938 52.88 144.938 52.352C144.938 51.952 145.034 51.5733 145.226 51.216C145.418 50.8533 145.73 50.56 146.162 50.336C146.594 50.112 147.167 50 147.882 50C148.404 50 148.828 50.056 149.154 50.168C149.484 50.2747 149.77 50.3893 150.01 50.512L149.834 51.824C149.604 51.632 149.338 51.4693 149.034 51.336C148.73 51.2027 148.356 51.136 147.914 51.136C147.466 51.136 147.1 51.2213 146.818 51.392C146.535 51.5573 146.394 51.824 146.394 52.192C146.394 52.56 146.543 52.8213 146.842 52.976C147.146 53.1307 147.604 53.3013 148.218 53.488C148.41 53.5413 148.631 53.6187 148.882 53.72C149.138 53.8213 149.386 53.9573 149.626 54.128C149.866 54.2987 150.063 54.5227 150.218 54.8C150.378 55.072 150.458 55.4133 150.458 55.824C150.458 56.1707 150.375 56.5253 150.21 56.888C150.044 57.2453 149.746 57.5467 149.314 57.792C148.882 58.0373 148.266 58.16 147.466 58.16ZM154.571 58.16C154.075 58.16 153.677 58.0693 153.379 57.888C153.08 57.7067 152.861 57.4747 152.723 57.192C152.589 56.904 152.523 56.6027 152.523 56.288V51.28H151.179L151.307 50.16H152.523V48.224L153.963 48.08V50.16H156.027V51.28H153.963V55.408C153.963 55.9093 153.992 56.272 154.051 56.496C154.109 56.72 154.253 56.8613 154.483 56.92C154.717 56.9787 155.093 57.008 155.611 57.008H155.979L155.867 58.16H154.571ZM160.619 58.16C159.797 58.16 159.096 57.9787 158.515 57.616C157.939 57.248 157.496 56.7573 157.187 56.144C156.883 55.5253 156.731 54.8373 156.731 54.08C156.731 53.3227 156.883 52.6373 157.187 52.024C157.496 51.4053 157.939 50.9147 158.515 50.552C159.096 50.184 159.797 50 160.619 50C161.435 50 162.133 50.184 162.715 50.552C163.296 50.9147 163.739 51.4053 164.043 52.024C164.352 52.6373 164.507 53.3227 164.507 54.08C164.507 54.8373 164.352 55.5253 164.043 56.144C163.739 56.7573 163.296 57.248 162.715 57.616C162.133 57.9787 161.435 58.16 160.619 58.16ZM160.619 56.88C161.397 56.88 161.995 56.6347 162.411 56.144C162.827 55.648 163.035 54.96 163.035 54.08C163.035 53.2 162.827 52.5147 162.411 52.024C161.995 51.528 161.397 51.28 160.619 51.28C159.845 51.28 159.248 51.528 158.827 52.024C158.411 52.5147 158.203 53.2 158.203 54.08C158.203 54.96 158.411 55.648 158.827 56.144C159.248 56.6347 159.845 56.88 160.619 56.88ZM165.992 58V50.16H167.176L167.352 51.456C167.752 50.96 168.133 50.5947 168.496 50.36C168.864 50.12 169.256 50 169.672 50C169.805 50 169.928 50.016 170.04 50.048L169.896 51.632C169.826 51.616 169.752 51.6053 169.672 51.6C169.597 51.5893 169.512 51.584 169.416 51.584C169 51.584 168.616 51.6773 168.264 51.864C167.917 52.0453 167.672 52.2453 167.528 52.464V58H165.992ZM174.611 58.16C173.688 58.16 172.912 57.9707 172.283 57.592C171.654 57.2133 171.176 56.712 170.851 56.088C170.531 55.4587 170.371 54.768 170.371 54.016C170.371 53.2853 170.52 52.616 170.819 52.008C171.123 51.4 171.56 50.9147 172.131 50.552C172.707 50.184 173.4 50 174.211 50C174.862 50 175.44 50.1307 175.947 50.392C176.459 50.648 176.859 51.024 177.147 51.52C177.44 52.0107 177.587 52.608 177.587 53.312C177.587 53.424 177.582 53.5467 177.571 53.68C177.566 53.808 177.55 53.9413 177.523 54.08H171.843C171.912 54.8053 172.086 55.3707 172.363 55.776C172.64 56.1813 172.99 56.4667 173.411 56.632C173.832 56.7973 174.291 56.88 174.787 56.88C175.15 56.88 175.528 56.8427 175.923 56.768C176.318 56.6933 176.691 56.576 177.043 56.416L177.235 57.552C176.931 57.6853 176.56 57.8213 176.123 57.96C175.686 58.0933 175.182 58.16 174.611 58.16ZM171.971 53.088H176.099C176.099 52.72 176.03 52.4 175.891 52.128C175.752 51.856 175.542 51.648 175.259 51.504C174.976 51.3547 174.616 51.28 174.179 51.28C173.539 51.28 173.046 51.44 172.699 51.76C172.358 52.0747 172.115 52.5173 171.971 53.088Z" fill="#757575"/>
<line x1="227.5" y1="5.5" x2="227.5" y2="56.5" stroke="#AEAEAE"/>
<path d="M277.762 33.3643L280.574 35.1591L277.762 39.5735C277.104 39.5735 276.445 39.3219 275.943 38.8195L271.186 34.0617L261.012 44.2358C260.513 44.735 259.702 44.735 259.203 44.2358L257.376 42.4078C256.876 41.9086 256.876 41.0981 257.376 40.599L269.367 28.6065C270.372 27.6025 272 27.6025 273.004 28.6065L277.762 33.3643Z" fill="#66E6FF"/>
<path d="M297.764 18.2794V31.2647C297.764 31.9709 297.192 32.5441 296.485 32.5441H293.901C293.194 32.5441 292.621 31.9709 292.621 31.2647V25.78L279.581 38.8202C279.079 39.3226 278.421 39.5742 277.763 39.5742V33.365L288.985 22.1432H283.501C282.794 22.1432 282.221 21.5699 282.221 20.8637V18.2794C282.221 17.5724 282.794 17 283.501 17H296.485C297.192 17 297.764 17.5724 297.764 18.2794Z" fill="#4DC3FF"/>
<path d="M321.672 31L319.112 28.872C319.784 28.5307 320.515 28.0933 321.304 27.56C322.104 27.0267 322.893 26.408 323.672 25.704C324.451 24.9893 325.16 24.2 325.8 23.336C326.451 22.472 326.968 21.5387 327.352 20.536C327.747 19.5333 327.944 18.4773 327.944 17.368L329.048 18.888C328.515 19.8373 327.752 20.6053 326.76 21.192C325.779 21.768 324.552 22.056 323.08 22.056C321.811 22.056 320.68 21.768 319.688 21.192C318.696 20.6053 317.912 19.8053 317.336 18.792C316.76 17.768 316.472 16.6053 316.472 15.304C316.472 13.896 316.776 12.6533 317.384 11.576C317.992 10.4987 318.845 9.66133 319.944 9.064C321.053 8.456 322.349 8.152 323.832 8.152C325.4 8.152 326.755 8.49867 327.896 9.192C329.037 9.88533 329.917 10.8613 330.536 12.12C331.165 13.368 331.48 14.824 331.48 16.488C331.48 18.216 331.181 19.8373 330.584 21.352C329.987 22.8667 329.203 24.248 328.232 25.496C327.272 26.7333 326.216 27.8213 325.064 28.76C323.923 29.688 322.792 30.4347 321.672 31ZM323.8 18.872C324.92 18.872 325.832 18.52 326.536 17.816C327.24 17.1013 327.592 16.2107 327.592 15.144C327.592 14.056 327.24 13.1547 326.536 12.44C325.832 11.7147 324.92 11.352 323.8 11.352C322.691 11.352 321.784 11.72 321.08 12.456C320.376 13.1813 320.024 14.0827 320.024 15.16C320.024 16.216 320.376 17.1013 321.08 17.816C321.784 18.52 322.691 18.872 323.8 18.872ZM344.311 31.448C342.391 31.448 340.727 30.952 339.319 29.96C337.911 28.9573 336.817 27.5707 336.039 25.8C335.26 24.0187 334.871 21.9547 334.871 19.608C334.871 17.336 335.265 15.3413 336.055 13.624C336.855 11.896 337.959 10.552 339.367 9.592C340.785 8.632 342.433 8.152 344.311 8.152C346.209 8.152 347.863 8.63733 349.271 9.608C350.689 10.568 351.788 11.9067 352.567 13.624C353.356 15.3413 353.751 17.336 353.751 19.608C353.751 21.9547 353.367 24.0187 352.599 25.8C351.831 27.5707 350.737 28.9573 349.319 29.96C347.911 30.952 346.241 31.448 344.311 31.448ZM344.311 28.104C345.441 28.104 346.428 27.8 347.271 27.192C348.124 26.584 348.785 25.6507 349.255 24.392C349.735 23.1333 349.975 21.5387 349.975 19.608C349.975 16.856 349.441 14.808 348.375 13.464C347.319 12.12 345.964 11.448 344.311 11.448C342.7 11.448 341.351 12.12 340.263 13.464C339.185 14.7973 338.647 16.8453 338.647 19.608C338.647 21.528 338.887 23.1173 339.367 24.376C339.847 25.6347 340.508 26.5733 341.351 27.192C342.204 27.8 343.191 28.104 344.311 28.104ZM362.379 20.952C361.237 20.952 360.261 20.6747 359.451 20.12C358.64 19.5547 358.021 18.7867 357.595 17.816C357.168 16.8347 356.955 15.7147 356.955 14.456C356.955 12.5467 357.451 11.0213 358.443 9.88C359.445 8.728 360.757 8.152 362.379 8.152C364.011 8.152 365.317 8.728 366.299 9.88C367.291 11.0213 367.787 12.5467 367.787 14.456C367.787 15.7147 367.573 16.8347 367.147 17.816C366.72 18.7867 366.101 19.5547 365.291 20.12C364.491 20.6747 363.52 20.952 362.379 20.952ZM362.379 18.344C363.136 18.344 363.723 18.008 364.139 17.336C364.555 16.6533 364.763 15.6933 364.763 14.456C364.763 13.2187 364.544 12.296 364.107 11.688C363.68 11.0693 363.104 10.76 362.379 10.76C361.675 10.76 361.099 11.0693 360.651 11.688C360.213 12.296 359.995 13.2187 359.995 14.456C359.995 15.6933 360.192 16.6533 360.587 17.336C360.992 18.008 361.589 18.344 362.379 18.344ZM362.123 31L375.227 8.6H378.219L365.147 31H362.123ZM377.931 31.448C376.789 31.448 375.813 31.1707 375.003 30.616C374.192 30.0507 373.573 29.2827 373.147 28.312C372.72 27.3307 372.507 26.2107 372.507 24.952C372.507 23.0427 373.003 21.5173 373.995 20.376C374.997 19.224 376.309 18.648 377.931 18.648C379.563 18.648 380.869 19.224 381.851 20.376C382.843 21.5173 383.339 23.0427 383.339 24.952C383.339 26.2107 383.125 27.3307 382.699 28.312C382.272 29.2827 381.653 30.0507 380.843 30.616C380.043 31.1707 379.072 31.448 377.931 31.448ZM377.931 28.84C378.688 28.84 379.275 28.504 379.691 27.832C380.107 27.1493 380.315 26.1893 380.315 24.952C380.315 23.7147 380.096 22.792 379.659 22.184C379.232 21.5653 378.656 21.256 377.931 21.256C377.227 21.256 376.651 21.5653 376.203 22.184C375.765 22.792 375.547 23.7147 375.547 24.952C375.547 26.1893 375.744 27.1493 376.139 27.832C376.544 28.504 377.141 28.84 377.931 28.84Z" fill="black"/>
<path d="M321.272 58.224C320.184 58.224 319.213 57.9867 318.36 57.512C317.512 57.032 316.843 56.3573 316.352 55.488C315.867 54.6133 315.624 53.584 315.624 52.4C315.624 51.216 315.869 50.1893 316.36 49.32C316.856 48.4453 317.533 47.7707 318.392 47.296C319.256 46.816 320.237 46.576 321.336 46.576C321.907 46.576 322.451 46.6373 322.968 46.76C323.485 46.8827 323.939 47.04 324.328 47.232L324.168 48.64C323.768 48.448 323.328 48.2853 322.848 48.152C322.368 48.0187 321.859 47.952 321.32 47.952C320.44 47.952 319.701 48.152 319.104 48.552C318.507 48.9467 318.053 49.48 317.744 50.152C317.44 50.824 317.288 51.5733 317.288 52.4C317.288 53.2267 317.437 53.976 317.736 54.648C318.04 55.32 318.488 55.856 319.08 56.256C319.677 56.6507 320.413 56.848 321.288 56.848C321.843 56.848 322.355 56.7893 322.824 56.672C323.299 56.5493 323.747 56.384 324.168 56.176L324.328 57.584C323.928 57.7653 323.477 57.9173 322.976 58.04C322.475 58.1627 321.907 58.224 321.272 58.224ZM327.851 58.16C327.345 58.16 326.942 58.0693 326.643 57.888C326.35 57.7013 326.139 57.464 326.011 57.176C325.883 56.888 325.819 56.5867 325.819 56.272V46H327.259V55.44C327.259 55.888 327.289 56.224 327.347 56.448C327.406 56.672 327.523 56.8213 327.699 56.896C327.881 56.9707 328.155 57.008 328.523 57.008L328.315 58.16H327.851ZM329.617 58V50.16H331.057V58H329.617ZM329.617 48.4V46.8H331.057V48.4H329.617ZM336.767 58.16C335.845 58.16 335.069 57.9707 334.439 57.592C333.81 57.2133 333.333 56.712 333.007 56.088C332.687 55.4587 332.527 54.768 332.527 54.016C332.527 53.2853 332.677 52.616 332.975 52.008C333.279 51.4 333.717 50.9147 334.287 50.552C334.863 50.184 335.557 50 336.367 50C337.018 50 337.597 50.1307 338.103 50.392C338.615 50.648 339.015 51.024 339.303 51.52C339.597 52.0107 339.743 52.608 339.743 53.312C339.743 53.424 339.738 53.5467 339.727 53.68C339.722 53.808 339.706 53.9413 339.679 54.08H333.999C334.069 54.8053 334.242 55.3707 334.519 55.776C334.797 56.1813 335.146 56.4667 335.567 56.632C335.989 56.7973 336.447 56.88 336.943 56.88C337.306 56.88 337.685 56.8427 338.079 56.768C338.474 56.6933 338.847 56.576 339.199 56.416L339.391 57.552C339.087 57.6853 338.717 57.8213 338.279 57.96C337.842 58.0933 337.338 58.16 336.767 58.16ZM334.127 53.088H338.255C338.255 52.72 338.186 52.4 338.047 52.128C337.909 51.856 337.698 51.648 337.415 51.504C337.133 51.3547 336.773 51.28 336.335 51.28C335.695 51.28 335.202 51.44 334.855 51.76C334.514 52.0747 334.271 52.5173 334.127 53.088ZM341.195 58V50.16H342.315L342.603 51.664L342.043 51.424C342.571 50.8373 343.085 50.4533 343.587 50.272C344.093 50.0907 344.587 50 345.067 50C346.213 50 347.032 50.3307 347.523 50.992C348.019 51.6533 348.267 52.5493 348.267 53.68V58H346.827V53.68C346.827 52.848 346.672 52.24 346.363 51.856C346.053 51.472 345.525 51.28 344.779 51.28C344.251 51.28 343.765 51.3973 343.323 51.632C342.885 51.8613 342.597 52.2293 342.459 52.736L342.635 51.856V58H341.195ZM352.711 58.16C352.215 58.16 351.818 58.0693 351.519 57.888C351.221 57.7067 351.002 57.4747 350.863 57.192C350.73 56.904 350.663 56.6027 350.663 56.288V51.28H349.319L349.447 50.16H350.663V48.224L352.103 48.08V50.16H354.167V51.28H352.103V55.408C352.103 55.9093 352.133 56.272 352.191 56.496C352.25 56.72 352.394 56.8613 352.623 56.92C352.858 56.9787 353.234 57.008 353.751 57.008H354.119L354.007 58.16H352.711ZM362.16 62C361.445 62 360.805 61.912 360.24 61.736C359.68 61.56 359.237 61.2987 358.912 60.952C358.592 60.6053 358.432 60.176 358.432 59.664C358.432 59.2373 358.552 58.8693 358.792 58.56C359.037 58.256 359.37 58.0107 359.792 57.824C359.541 57.7013 359.349 57.5573 359.216 57.392C359.088 57.2213 359.024 57.0347 359.024 56.832C359.024 56.592 359.096 56.376 359.24 56.184C359.389 55.9867 359.626 55.824 359.952 55.696C359.514 55.424 359.178 55.0587 358.944 54.6C358.709 54.136 358.592 53.6213 358.592 53.056C358.592 52.4853 358.72 51.9707 358.976 51.512C359.232 51.048 359.6 50.68 360.08 50.408C360.565 50.136 361.146 50 361.824 50C362.186 50 362.528 50.0533 362.848 50.16C363.173 50.2667 363.472 50.416 363.744 50.608C363.984 50.4693 364.266 50.3547 364.592 50.264C364.922 50.1733 365.29 50.128 365.696 50.128C365.722 50.128 365.744 50.128 365.76 50.128C365.781 50.128 365.802 50.128 365.824 50.128L365.648 51.088C365.584 51.088 365.522 51.088 365.464 51.088C365.405 51.088 365.344 51.088 365.28 51.088C365.226 51.088 365.104 51.096 364.912 51.112C364.72 51.128 364.544 51.1573 364.384 51.2C364.602 51.456 364.77 51.744 364.888 52.064C365.01 52.3787 365.072 52.7093 365.072 53.056C365.072 53.6533 364.941 54.1893 364.68 54.664C364.424 55.1333 364.053 55.5067 363.568 55.784C363.082 56.056 362.501 56.192 361.824 56.192C361.632 56.192 361.448 56.1813 361.272 56.16C361.096 56.1333 360.928 56.096 360.768 56.048C360.522 56.128 360.4 56.2667 360.4 56.464C360.4 56.5813 360.469 56.6853 360.608 56.776C360.746 56.8613 360.97 56.928 361.28 56.976L363.376 57.312C364.224 57.4453 364.877 57.6907 365.336 58.048C365.8 58.4053 366.032 58.912 366.032 59.568C366.032 60.112 365.872 60.5627 365.552 60.92C365.237 61.2827 364.789 61.552 364.208 61.728C363.626 61.9093 362.944 62 362.16 62ZM362.288 60.72C363.024 60.72 363.589 60.624 363.984 60.432C364.378 60.2453 364.576 59.968 364.576 59.6C364.576 59.312 364.45 59.0853 364.2 58.92C363.954 58.7547 363.6 58.6293 363.136 58.544L360.904 58.168C360.61 58.296 360.354 58.4667 360.136 58.68C359.917 58.8987 359.808 59.152 359.808 59.44C359.808 59.888 360.032 60.2133 360.48 60.416C360.933 60.6187 361.536 60.72 362.288 60.72ZM361.824 55.04C362.432 55.04 362.896 54.8587 363.216 54.496C363.536 54.128 363.696 53.6533 363.696 53.072C363.696 52.512 363.536 52.0533 363.216 51.696C362.896 51.3333 362.432 51.152 361.824 51.152C361.216 51.152 360.754 51.3333 360.44 51.696C360.125 52.0533 359.968 52.512 359.968 53.072C359.968 53.6533 360.125 54.128 360.44 54.496C360.754 54.8587 361.216 55.04 361.824 55.04ZM370.384 58.16C369.563 58.16 368.862 57.9787 368.28 57.616C367.704 57.248 367.262 56.7573 366.952 56.144C366.648 55.5253 366.496 54.8373 366.496 54.08C366.496 53.3227 366.648 52.6373 366.952 52.024C367.262 51.4053 367.704 50.9147 368.28 50.552C368.862 50.184 369.563 50 370.384 50C371.2 50 371.899 50.184 372.48 50.552C373.062 50.9147 373.504 51.4053 373.808 52.024C374.118 52.6373 374.272 53.3227 374.272 54.08C374.272 54.8373 374.118 55.5253 373.808 56.144C373.504 56.7573 373.062 57.248 372.48 57.616C371.899 57.9787 371.2 58.16 370.384 58.16ZM370.384 56.88C371.163 56.88 371.76 56.6347 372.176 56.144C372.592 55.648 372.8 54.96 372.8 54.08C372.8 53.2 372.592 52.5147 372.176 52.024C371.76 51.528 371.163 51.28 370.384 51.28C369.611 51.28 369.014 51.528 368.592 52.024C368.176 52.5147 367.968 53.2 367.968 54.08C367.968 54.96 368.176 55.648 368.592 56.144C369.014 56.6347 369.611 56.88 370.384 56.88ZM378.352 58.16C377.856 58.16 377.459 58.0693 377.16 57.888C376.861 57.7067 376.643 57.4747 376.504 57.192C376.371 56.904 376.304 56.6027 376.304 56.288V51.28H374.96L375.088 50.16H376.304V48.224L377.744 48.08V50.16H379.808V51.28H377.744V55.408C377.744 55.9093 377.773 56.272 377.832 56.496C377.891 56.72 378.035 56.8613 378.264 56.92C378.499 56.9787 378.875 57.008 379.392 57.008H379.76L379.648 58.16H378.352ZM386.952 58L385.912 57.024C386.355 56.7947 386.784 56.528 387.2 56.224C387.622 55.9147 388.014 55.5707 388.376 55.192C388.739 54.808 389.056 54.3973 389.328 53.96C389.6 53.5173 389.814 53.048 389.968 52.552C390.123 52.0507 390.2 51.5307 390.2 50.992L390.712 51.856C390.456 52.368 390.064 52.7733 389.536 53.072C389.008 53.3707 388.387 53.52 387.672 53.52C387.022 53.52 386.446 53.3733 385.944 53.08C385.443 52.7813 385.051 52.376 384.768 51.864C384.486 51.352 384.344 50.7733 384.344 50.128C384.344 49.4347 384.499 48.8213 384.808 48.288C385.118 47.7547 385.547 47.336 386.096 47.032C386.651 46.728 387.294 46.576 388.024 46.576C388.808 46.576 389.478 46.752 390.032 47.104C390.592 47.4507 391.019 47.936 391.312 48.56C391.606 49.184 391.752 49.9093 391.752 50.736C391.752 51.5893 391.611 52.392 391.328 53.144C391.046 53.8907 390.67 54.576 390.2 55.2C389.736 55.8187 389.222 56.3653 388.656 56.84C388.091 57.3147 387.523 57.7013 386.952 58ZM388.024 52.208C388.664 52.208 389.179 52.0027 389.568 51.592C389.958 51.1813 390.152 50.672 390.152 50.064C390.152 49.4293 389.958 48.9093 389.568 48.504C389.179 48.0933 388.664 47.888 388.024 47.888C387.384 47.888 386.872 48.0987 386.488 48.52C386.104 48.9413 385.912 49.4613 385.912 50.08C385.912 50.6773 386.104 51.1813 386.488 51.592C386.872 52.0027 387.384 52.208 388.024 52.208ZM398.334 58.224C397.347 58.224 396.502 57.9707 395.798 57.464C395.094 56.9573 394.553 56.2587 394.174 55.368C393.801 54.4773 393.614 53.456 393.614 52.304C393.614 51.152 393.814 50.1467 394.214 49.288C394.614 48.4293 395.169 47.7627 395.878 47.288C396.587 46.8133 397.406 46.576 398.334 46.576C399.283 46.576 400.11 46.8133 400.814 47.288C401.523 47.7627 402.073 48.4293 402.462 49.288C402.857 50.1467 403.054 51.152 403.054 52.304C403.054 53.456 402.867 54.4773 402.494 55.368C402.121 56.2587 401.582 56.9573 400.878 57.464C400.174 57.9707 399.326 58.224 398.334 58.224ZM398.334 56.848C398.995 56.848 399.555 56.672 400.014 56.32C400.478 55.968 400.83 55.4533 401.07 54.776C401.315 54.0987 401.438 53.2747 401.438 52.304C401.438 50.848 401.155 49.76 400.59 49.04C400.03 48.3147 399.278 47.952 398.334 47.952C397.438 47.952 396.697 48.3147 396.11 49.04C395.523 49.76 395.23 50.848 395.23 52.304C395.23 53.2747 395.35 54.0987 395.59 54.776C395.835 55.4533 396.187 55.968 396.646 56.32C397.11 56.672 397.673 56.848 398.334 56.848ZM407.218 52.976C406.663 52.976 406.186 52.8373 405.786 52.56C405.391 52.2773 405.087 51.8933 404.874 51.408C404.666 50.9173 404.562 50.3573 404.562 49.728C404.562 48.7733 404.807 48.0107 405.298 47.44C405.794 46.864 406.434 46.576 407.218 46.576C408.018 46.576 408.661 46.864 409.146 47.44C409.631 48.0107 409.874 48.7733 409.874 49.728C409.874 50.3573 409.77 50.9173 409.562 51.408C409.354 51.8933 409.05 52.2773 408.65 52.56C408.255 52.8373 407.778 52.976 407.218 52.976ZM407.218 51.824C407.65 51.824 407.981 51.6427 408.21 51.28C408.445 50.9173 408.562 50.4 408.562 49.728C408.562 49.056 408.439 48.5547 408.194 48.224C407.954 47.8933 407.629 47.728 407.218 47.728C406.834 47.728 406.514 47.8933 406.258 48.224C406.002 48.5547 405.874 49.056 405.874 49.728C405.874 50.4 405.989 50.9173 406.218 51.28C406.453 51.6427 406.786 51.824 407.218 51.824ZM407.234 58L413.682 46.8H415.026L408.594 58H407.234ZM415.01 58.224C414.455 58.224 413.978 58.0853 413.578 57.808C413.183 57.5253 412.879 57.1413 412.666 56.656C412.458 56.1653 412.354 55.6053 412.354 54.976C412.354 54.0213 412.599 53.2587 413.09 52.688C413.586 52.112 414.226 51.824 415.01 51.824C415.81 51.824 416.453 52.112 416.938 52.688C417.423 53.2587 417.666 54.0213 417.666 54.976C417.666 55.6053 417.562 56.1653 417.354 56.656C417.146 57.1413 416.842 57.5253 416.442 57.808C416.047 58.0853 415.57 58.224 415.01 58.224ZM415.01 57.072C415.442 57.072 415.773 56.8907 416.002 56.528C416.237 56.1653 416.354 55.648 416.354 54.976C416.354 54.304 416.231 53.8027 415.986 53.472C415.746 53.1413 415.421 52.976 415.01 52.976C414.626 52.976 414.306 53.1413 414.05 53.472C413.794 53.8027 413.666 54.304 413.666 54.976C413.666 55.648 413.781 56.1653 414.01 56.528C414.245 56.8907 414.578 57.072 415.01 57.072ZM426.306 58.16C425.485 58.16 424.784 57.9787 424.202 57.616C423.626 57.248 423.184 56.7573 422.874 56.144C422.57 55.5253 422.418 54.8373 422.418 54.08C422.418 53.3227 422.57 52.6373 422.874 52.024C423.184 51.4053 423.626 50.9147 424.202 50.552C424.784 50.184 425.485 50 426.306 50C427.122 50 427.821 50.184 428.402 50.552C428.984 50.9147 429.426 51.4053 429.73 52.024C430.04 52.6373 430.194 53.3227 430.194 54.08C430.194 54.8373 430.04 55.5253 429.73 56.144C429.426 56.7573 428.984 57.248 428.402 57.616C427.821 57.9787 427.122 58.16 426.306 58.16ZM426.306 56.88C427.085 56.88 427.682 56.6347 428.098 56.144C428.514 55.648 428.722 54.96 428.722 54.08C428.722 53.2 428.514 52.5147 428.098 52.024C427.682 51.528 427.085 51.28 426.306 51.28C425.533 51.28 424.936 51.528 424.514 52.024C424.098 52.5147 423.89 53.2 423.89 54.08C423.89 54.96 424.098 55.648 424.514 56.144C424.936 56.6347 425.533 56.88 426.306 56.88ZM432.145 58V51.28H430.785L430.977 50.16H432.145V48.304C432.145 47.6053 432.332 47.048 432.705 46.632C433.078 46.2107 433.628 46 434.353 46C434.62 46 434.852 46.0187 435.049 46.056C435.252 46.0933 435.436 46.144 435.601 46.208L435.377 47.424C435.249 47.376 435.124 47.3413 435.001 47.32C434.878 47.2933 434.737 47.28 434.577 47.28C434.268 47.28 434.025 47.368 433.849 47.544C433.673 47.7147 433.585 48 433.585 48.4V50.16H435.697V51.28H433.585V58H432.145ZM440.492 58V50.16H441.612L441.9 51.664L441.34 51.424C441.868 50.8373 442.382 50.4533 442.884 50.272C443.39 50.0907 443.884 50 444.364 50C445.51 50 446.329 50.3307 446.82 50.992C447.316 51.6533 447.564 52.5493 447.564 53.68V58H446.124V53.68C446.124 52.848 445.969 52.24 445.66 51.856C445.35 51.472 444.822 51.28 444.076 51.28C443.548 51.28 443.062 51.3973 442.62 51.632C442.182 51.8613 441.894 52.2293 441.756 52.736L441.932 51.856V58H440.492ZM452.853 58.16C452.032 58.16 451.33 57.9787 450.749 57.616C450.173 57.248 449.73 56.7573 449.421 56.144C449.117 55.5253 448.965 54.8373 448.965 54.08C448.965 53.3227 449.117 52.6373 449.421 52.024C449.73 51.4053 450.173 50.9147 450.749 50.552C451.33 50.184 452.032 50 452.853 50C453.669 50 454.368 50.184 454.949 50.552C455.53 50.9147 455.973 51.4053 456.277 52.024C456.586 52.6373 456.741 53.3227 456.741 54.08C456.741 54.8373 456.586 55.5253 456.277 56.144C455.973 56.7573 455.53 57.248 454.949 57.616C454.368 57.9787 453.669 58.16 452.853 58.16ZM452.853 56.88C453.632 56.88 454.229 56.6347 454.645 56.144C455.061 55.648 455.269 54.96 455.269 54.08C455.269 53.2 455.061 52.5147 454.645 52.024C454.229 51.528 453.632 51.28 452.853 51.28C452.08 51.28 451.482 51.528 451.061 52.024C450.645 52.5147 450.437 53.2 450.437 54.08C450.437 54.96 450.645 55.648 451.061 56.144C451.482 56.6347 452.08 56.88 452.853 56.88ZM460.821 58.16C460.325 58.16 459.927 58.0693 459.629 57.888C459.33 57.7067 459.111 57.4747 458.973 57.192C458.839 56.904 458.773 56.6027 458.773 56.288V51.28H457.429L457.557 50.16H458.773V48.224L460.213 48.08V50.16H462.277V51.28H460.213V55.408C460.213 55.9093 460.242 56.272 460.301 56.496C460.359 56.72 460.503 56.8613 460.733 56.92C460.967 56.9787 461.343 57.008 461.861 57.008H462.229L462.117 58.16H460.821ZM463.507 58V50.16H464.947V58H463.507ZM463.507 48.4V46.8H464.947V48.4H463.507ZM470.498 58.16C469.613 58.16 468.869 57.9813 468.266 57.624C467.669 57.2613 467.215 56.776 466.906 56.168C466.602 55.5547 466.45 54.8747 466.45 54.128C466.45 53.3493 466.597 52.648 466.89 52.024C467.189 51.4 467.645 50.9067 468.258 50.544C468.871 50.1813 469.655 50 470.61 50C471.021 50 471.407 50.0427 471.77 50.128C472.138 50.208 472.466 50.32 472.754 50.464L472.53 51.728C472.237 51.5893 471.925 51.48 471.594 51.4C471.269 51.32 470.93 51.28 470.578 51.28C469.714 51.28 469.055 51.5253 468.602 52.016C468.149 52.5067 467.922 53.1893 467.922 54.064C467.922 54.9173 468.138 55.6027 468.57 56.12C469.002 56.6373 469.661 56.896 470.546 56.896C470.909 56.896 471.255 56.8533 471.586 56.768C471.922 56.6827 472.242 56.5653 472.546 56.416L472.738 57.568C472.525 57.7173 472.213 57.8533 471.802 57.976C471.391 58.0987 470.957 58.16 470.498 58.16ZM477.814 58.16C476.891 58.16 476.115 57.9707 475.486 57.592C474.857 57.2133 474.379 56.712 474.054 56.088C473.734 55.4587 473.574 54.768 473.574 54.016C473.574 53.2853 473.723 52.616 474.022 52.008C474.326 51.4 474.763 50.9147 475.334 50.552C475.91 50.184 476.603 50 477.414 50C478.065 50 478.643 50.1307 479.15 50.392C479.662 50.648 480.062 51.024 480.35 51.52C480.643 52.0107 480.79 52.608 480.79 53.312C480.79 53.424 480.785 53.5467 480.774 53.68C480.769 53.808 480.753 53.9413 480.726 54.08H475.046C475.115 54.8053 475.289 55.3707 475.566 55.776C475.843 56.1813 476.193 56.4667 476.614 56.632C477.035 56.7973 477.494 56.88 477.99 56.88C478.353 56.88 478.731 56.8427 479.126 56.768C479.521 56.6933 479.894 56.576 480.246 56.416L480.438 57.552C480.134 57.6853 479.763 57.8213 479.326 57.96C478.889 58.0933 478.385 58.16 477.814 58.16ZM475.174 53.088H479.302C479.302 52.72 479.233 52.4 479.094 52.128C478.955 51.856 478.745 51.648 478.462 51.504C478.179 51.3547 477.819 51.28 477.382 51.28C476.742 51.28 476.249 51.44 475.902 51.76C475.561 52.0747 475.318 52.5173 475.174 53.088ZM484.066 58.16C483.58 58.16 483.156 58.0613 482.794 57.864C482.431 57.6667 482.148 57.3973 481.946 57.056C481.748 56.7147 481.65 56.3253 481.65 55.888C481.65 55.4453 481.746 55.0667 481.938 54.752C482.135 54.432 482.396 54.168 482.722 53.96C483.052 53.7467 483.42 53.5787 483.826 53.456C484.231 53.328 484.65 53.2373 485.082 53.184C485.519 53.1253 485.938 53.0933 486.338 53.088C486.338 52.3413 486.191 51.8533 485.898 51.624C485.604 51.3947 485.18 51.28 484.626 51.28C484.332 51.28 484.018 51.3253 483.682 51.416C483.351 51.5067 482.978 51.696 482.562 51.984L482.354 50.816C482.668 50.576 483.06 50.3813 483.53 50.232C483.999 50.0773 484.492 50 485.01 50C485.671 50 486.204 50.1173 486.61 50.352C487.015 50.5813 487.311 50.9707 487.498 51.52C487.684 52.0693 487.778 52.816 487.778 53.76V55.36C487.778 55.7333 487.794 56.0427 487.826 56.288C487.863 56.528 487.943 56.7093 488.066 56.832C488.194 56.9493 488.396 57.008 488.674 57.008H488.818L488.594 58.16H488.482C488.018 58.16 487.658 58.1147 487.402 58.024C487.151 57.9333 486.959 57.8027 486.826 57.632C486.692 57.4613 486.572 57.2533 486.466 57.008C486.172 57.3493 485.826 57.6267 485.426 57.84C485.026 58.0533 484.572 58.16 484.066 58.16ZM484.338 57.008C484.722 57.008 485.092 56.912 485.45 56.72C485.812 56.528 486.108 56.272 486.338 55.952V54.08C485.575 54.1067 484.956 54.1813 484.482 54.304C484.012 54.4267 483.668 54.6107 483.45 54.856C483.231 55.1013 483.122 55.4187 483.122 55.808C483.122 56.2293 483.234 56.536 483.458 56.728C483.687 56.9147 483.98 57.008 484.338 57.008ZM493.785 58.16C493.236 58.16 492.702 58.0293 492.185 57.768C491.673 57.5013 491.316 57.1093 491.113 56.592L491.465 56.336L491.193 58H489.913V46H491.353V51.696L491.049 51.472C491.316 51.04 491.697 50.688 492.193 50.416C492.689 50.1387 493.22 50 493.785 50C494.516 50 495.145 50.192 495.673 50.576C496.201 50.9547 496.606 51.456 496.889 52.08C497.177 52.6987 497.321 53.3653 497.321 54.08C497.321 54.8427 497.164 55.5333 496.849 56.152C496.534 56.7653 496.11 57.2533 495.577 57.616C495.044 57.9787 494.446 58.16 493.785 58.16ZM493.609 56.88C494.068 56.88 494.465 56.7547 494.801 56.504C495.137 56.248 495.396 55.9093 495.577 55.488C495.758 55.0613 495.849 54.592 495.849 54.08C495.849 53.5467 495.758 53.0693 495.577 52.648C495.396 52.2267 495.137 51.8933 494.801 51.648C494.465 51.4027 494.068 51.28 493.609 51.28C493.198 51.28 492.814 51.384 492.457 51.592C492.105 51.7947 491.82 52.104 491.601 52.52C491.382 52.9307 491.273 53.4507 491.273 54.08C491.273 54.736 491.382 55.2693 491.601 55.68C491.82 56.0907 492.105 56.3947 492.457 56.592C492.814 56.784 493.198 56.88 493.609 56.88ZM500.82 58.16C500.313 58.16 499.911 58.0693 499.612 57.888C499.319 57.7013 499.108 57.464 498.98 57.176C498.852 56.888 498.788 56.5867 498.788 56.272V46H500.228V55.44C500.228 55.888 500.257 56.224 500.316 56.448C500.375 56.672 500.492 56.8213 500.668 56.896C500.849 56.9707 501.124 57.008 501.492 57.008L501.284 58.16H500.82ZM506.267 58.16C505.345 58.16 504.569 57.9707 503.939 57.592C503.31 57.2133 502.833 56.712 502.507 56.088C502.187 55.4587 502.027 54.768 502.027 54.016C502.027 53.2853 502.177 52.616 502.475 52.008C502.779 51.4 503.217 50.9147 503.787 50.552C504.363 50.184 505.057 50 505.867 50C506.518 50 507.097 50.1307 507.603 50.392C508.115 50.648 508.515 51.024 508.803 51.52C509.097 52.0107 509.243 52.608 509.243 53.312C509.243 53.424 509.238 53.5467 509.227 53.68C509.222 53.808 509.206 53.9413 509.179 54.08H503.499C503.569 54.8053 503.742 55.3707 504.019 55.776C504.297 56.1813 504.646 56.4667 505.067 56.632C505.489 56.7973 505.947 56.88 506.443 56.88C506.806 56.88 507.185 56.8427 507.579 56.768C507.974 56.6933 508.347 56.576 508.699 56.416L508.891 57.552C508.587 57.6853 508.217 57.8213 507.779 57.96C507.342 58.0933 506.838 58.16 506.267 58.16ZM503.627 53.088H507.755C507.755 52.72 507.686 52.4 507.547 52.128C507.409 51.856 507.198 51.648 506.915 51.504C506.633 51.3547 506.273 51.28 505.835 51.28C505.195 51.28 504.702 51.44 504.355 51.76C504.014 52.0747 503.771 52.5173 503.627 53.088ZM517.457 62C516.742 62 516.102 61.912 515.537 61.736C514.977 61.56 514.534 61.2987 514.209 60.952C513.889 60.6053 513.729 60.176 513.729 59.664C513.729 59.2373 513.849 58.8693 514.089 58.56C514.334 58.256 514.667 58.0107 515.089 57.824C514.838 57.7013 514.646 57.5573 514.513 57.392C514.385 57.2213 514.321 57.0347 514.321 56.832C514.321 56.592 514.393 56.376 514.537 56.184C514.686 55.9867 514.923 55.824 515.249 55.696C514.811 55.424 514.475 55.0587 514.241 54.6C514.006 54.136 513.889 53.6213 513.889 53.056C513.889 52.4853 514.017 51.9707 514.273 51.512C514.529 51.048 514.897 50.68 515.377 50.408C515.862 50.136 516.443 50 517.121 50C517.483 50 517.825 50.0533 518.145 50.16C518.47 50.2667 518.769 50.416 519.041 50.608C519.281 50.4693 519.563 50.3547 519.889 50.264C520.219 50.1733 520.587 50.128 520.993 50.128C521.019 50.128 521.041 50.128 521.057 50.128C521.078 50.128 521.099 50.128 521.121 50.128L520.945 51.088C520.881 51.088 520.819 51.088 520.761 51.088C520.702 51.088 520.641 51.088 520.577 51.088C520.523 51.088 520.401 51.096 520.209 51.112C520.017 51.128 519.841 51.1573 519.681 51.2C519.899 51.456 520.067 51.744 520.185 52.064C520.307 52.3787 520.369 52.7093 520.369 53.056C520.369 53.6533 520.238 54.1893 519.977 54.664C519.721 55.1333 519.35 55.5067 518.865 55.784C518.379 56.056 517.798 56.192 517.121 56.192C516.929 56.192 516.745 56.1813 516.569 56.16C516.393 56.1333 516.225 56.096 516.065 56.048C515.819 56.128 515.697 56.2667 515.697 56.464C515.697 56.5813 515.766 56.6853 515.905 56.776C516.043 56.8613 516.267 56.928 516.577 56.976L518.673 57.312C519.521 57.4453 520.174 57.6907 520.633 58.048C521.097 58.4053 521.329 58.912 521.329 59.568C521.329 60.112 521.169 60.5627 520.849 60.92C520.534 61.2827 520.086 61.552 519.505 61.728C518.923 61.9093 518.241 62 517.457 62ZM517.585 60.72C518.321 60.72 518.886 60.624 519.281 60.432C519.675 60.2453 519.873 59.968 519.873 59.6C519.873 59.312 519.747 59.0853 519.497 58.92C519.251 58.7547 518.897 58.6293 518.433 58.544L516.201 58.168C515.907 58.296 515.651 58.4667 515.433 58.68C515.214 58.8987 515.105 59.152 515.105 59.44C515.105 59.888 515.329 60.2133 515.777 60.416C516.23 60.6187 516.833 60.72 517.585 60.72ZM517.121 55.04C517.729 55.04 518.193 54.8587 518.513 54.496C518.833 54.128 518.993 53.6533 518.993 53.072C518.993 52.512 518.833 52.0533 518.513 51.696C518.193 51.3333 517.729 51.152 517.121 51.152C516.513 51.152 516.051 51.3333 515.737 51.696C515.422 52.0533 515.265 52.512 515.265 53.072C515.265 53.6533 515.422 54.128 515.737 54.496C516.051 54.8587 516.513 55.04 517.121 55.04ZM522.257 58V50.16H523.441L523.617 51.456C524.017 50.96 524.399 50.5947 524.761 50.36C525.129 50.12 525.521 50 525.937 50C526.071 50 526.193 50.016 526.305 50.048L526.161 51.632C526.092 51.616 526.017 51.6053 525.937 51.6C525.863 51.5893 525.777 51.584 525.681 51.584C525.265 51.584 524.881 51.6773 524.529 51.864C524.183 52.0453 523.937 52.2453 523.793 52.464V58H522.257ZM530.541 58.16C529.719 58.16 529.018 57.9787 528.437 57.616C527.861 57.248 527.418 56.7573 527.109 56.144C526.805 55.5253 526.653 54.8373 526.653 54.08C526.653 53.3227 526.805 52.6373 527.109 52.024C527.418 51.4053 527.861 50.9147 528.437 50.552C529.018 50.184 529.719 50 530.541 50C531.357 50 532.055 50.184 532.637 50.552C533.218 50.9147 533.661 51.4053 533.965 52.024C534.274 52.6373 534.429 53.3227 534.429 54.08C534.429 54.8373 534.274 55.5253 533.965 56.144C533.661 56.7573 533.218 57.248 532.637 57.616C532.055 57.9787 531.357 58.16 530.541 58.16ZM530.541 56.88C531.319 56.88 531.917 56.6347 532.333 56.144C532.749 55.648 532.957 54.96 532.957 54.08C532.957 53.2 532.749 52.5147 532.333 52.024C531.917 51.528 531.319 51.28 530.541 51.28C529.767 51.28 529.17 51.528 528.749 52.024C528.333 52.5147 528.125 53.2 528.125 54.08C528.125 54.96 528.333 55.648 528.749 56.144C529.17 56.6347 529.767 56.88 530.541 56.88ZM537.403 58L535.051 50.16H536.747L538.251 56.416L539.915 50.4H541.403L543.083 56.416L544.587 50.16H546.283L543.915 58H542.299L540.667 52.208L539.019 58H537.403ZM550.133 58.16C549.637 58.16 549.24 58.0693 548.941 57.888C548.642 57.7067 548.424 57.4747 548.285 57.192C548.152 56.904 548.085 56.6027 548.085 56.288V51.28H546.741L546.869 50.16H548.085V48.224L549.525 48.08V50.16H551.589V51.28H549.525V55.408C549.525 55.9093 549.554 56.272 549.613 56.496C549.672 56.72 549.816 56.8613 550.045 56.92C550.28 56.9787 550.656 57.008 551.173 57.008H551.541L551.429 58.16H550.133ZM552.804 58V46H554.26V51.52L553.748 51.488C554.116 51.024 554.51 50.6613 554.932 50.4C555.358 50.1333 555.902 50 556.564 50C557.241 50 557.806 50.152 558.26 50.456C558.713 50.76 559.052 51.184 559.276 51.728C559.505 52.272 559.62 52.9067 559.62 53.632V58H558.18V53.808C558.18 52.944 558.02 52.3067 557.7 51.896C557.385 51.4853 556.9 51.28 556.244 51.28C555.748 51.28 555.308 51.4133 554.924 51.68C554.545 51.9467 554.244 52.304 554.02 52.752L554.26 51.872V58H552.804Z" fill="#757575"/>
</svg>
