<svg width="372" height="91" viewBox="0 0 372 91" fill="none" xmlns="http://www.w3.org/2000/svg">
<path d="M9.664 31.448C8.04267 31.448 6.64 31.16 5.456 30.584C4.28267 29.9973 3.376 29.1867 2.736 28.152C2.10667 27.1173 1.792 25.9227 1.792 24.568C1.792 23.224 2.12267 22.0453 2.784 21.032C3.44533 20.008 4.36267 19.2133 5.536 18.648C6.72 18.072 8.096 17.784 9.664 17.784C11.232 17.784 12.608 18.072 13.792 18.648C14.976 19.2133 15.8933 20.008 16.544 21.032C17.2053 22.0453 17.536 23.224 17.536 24.568C17.536 25.9227 17.216 27.1173 16.576 28.152C15.936 29.1867 15.024 29.9973 13.84 30.584C12.6667 31.16 11.2747 31.448 9.664 31.448ZM9.664 27.928C10.9653 27.928 11.9733 27.5973 12.688 26.936C13.4027 26.2747 13.76 25.4 13.76 24.312C13.76 23.288 13.4027 22.44 12.688 21.768C11.9733 21.096 10.9653 20.76 9.664 20.76C8.37333 20.76 7.36533 21.096 6.64 21.768C5.92533 22.44 5.568 23.288 5.568 24.312C5.568 25.4 5.92533 26.2747 6.64 26.936C7.36533 27.5973 8.37333 27.928 9.664 27.928ZM9.664 20.12C8.39467 20.12 7.24267 19.8693 6.208 19.368C5.17333 18.8667 4.34667 18.1733 3.728 17.288C3.12 16.392 2.816 15.3627 2.816 14.2C2.816 13.2187 3.04533 12.264 3.504 11.336C3.97333 10.408 4.70933 9.64533 5.712 9.048C6.72533 8.45067 8.04267 8.152 9.664 8.152C11.2853 8.152 12.5867 8.45067 13.568 9.048C14.56 9.64533 15.2747 10.408 15.712 11.336C16.16 12.264 16.384 13.2187 16.384 14.2C16.384 15.3627 16.1067 16.392 15.552 17.288C15.008 18.1733 14.2293 18.8667 13.216 19.368C12.2133 19.8693 11.0293 20.12 9.664 20.12ZM9.664 17.144C10.7093 17.144 11.4933 16.8613 12.016 16.296C12.5387 15.72 12.8 15.032 12.8 14.232C12.8 13.3787 12.5387 12.6853 12.016 12.152C11.4933 11.6187 10.7093 11.352 9.664 11.352C8.62933 11.352 7.824 11.6187 7.248 12.152C6.68267 12.6853 6.4 13.3787 6.4 14.232C6.4 15.032 6.68267 15.72 7.248 16.296C7.824 16.8613 8.62933 17.144 9.664 17.144ZM30.6085 31.448C28.7205 31.448 27.0672 30.9573 25.6485 29.976C24.2405 28.984 23.1418 27.6027 22.3525 25.832C21.5632 24.0507 21.1685 21.976 21.1685 19.608C21.1685 17.3467 21.5632 15.3573 22.3525 13.64C23.1418 11.912 24.2405 10.568 25.6485 9.608C27.0672 8.63733 28.7205 8.152 30.6085 8.152C32.5072 8.152 34.1605 8.63733 35.5685 9.608C36.9872 10.5787 38.0858 11.928 38.8645 13.656C39.6538 15.3733 40.0485 17.3573 40.0485 19.608C40.0485 21.976 39.6538 24.0507 38.8645 25.832C38.0858 27.6027 36.9872 28.984 35.5685 29.976C34.1605 30.9573 32.5072 31.448 30.6085 31.448ZM30.6085 27.768C31.6218 27.768 32.5285 27.4907 33.3285 26.936C34.1392 26.3813 34.7792 25.5067 35.2485 24.312C35.7178 23.1067 35.9525 21.5387 35.9525 19.608C35.9525 16.952 35.4405 14.984 34.4165 13.704C33.4032 12.4133 32.1338 11.768 30.6085 11.768C29.0938 11.768 27.8245 12.408 26.8005 13.688C25.7765 14.9573 25.2645 16.9307 25.2645 19.608C25.2645 21.5173 25.4992 23.0747 25.9685 24.28C26.4378 25.4747 27.0725 26.3547 27.8725 26.92C28.6832 27.4853 29.5952 27.768 30.6085 27.768ZM48.8503 20.952C47.6876 20.952 46.6956 20.6747 45.8743 20.12C45.0636 19.5547 44.4449 18.7867 44.0182 17.816C43.5916 16.8347 43.3783 15.7147 43.3783 14.456C43.3783 12.5467 43.8796 11.0213 44.8823 9.88C45.8849 8.728 47.2076 8.152 48.8503 8.152C50.5036 8.152 51.8263 8.728 52.8183 9.88C53.8209 11.0213 54.3223 12.5467 54.3223 14.456C54.3223 15.7147 54.1036 16.8347 53.6663 17.816C53.2396 18.7867 52.6156 19.5547 51.7943 20.12C50.9836 20.6747 50.0023 20.952 48.8503 20.952ZM48.8503 18.168C49.5543 18.168 50.0983 17.848 50.4823 17.208C50.8663 16.5573 51.0583 15.64 51.0583 14.456C51.0583 13.272 50.8556 12.392 50.4503 11.816C50.0556 11.2293 49.5223 10.936 48.8503 10.936C48.1783 10.936 47.6396 11.2293 47.2343 11.816C46.8396 12.392 46.6423 13.272 46.6423 14.456C46.6423 15.64 46.8236 16.5573 47.1863 17.208C47.5489 17.848 48.1036 18.168 48.8503 18.168ZM48.4343 31L61.6503 8.6H64.8183L51.6343 31H48.4343ZM64.3703 31.448C63.2076 31.448 62.2156 31.1707 61.3943 30.616C60.5836 30.0507 59.9649 29.2827 59.5382 28.312C59.1116 27.3307 58.8983 26.2107 58.8983 24.952C58.8983 23.0427 59.3996 21.5173 60.4023 20.376C61.4049 19.224 62.7276 18.648 64.3703 18.648C66.0236 18.648 67.3463 19.224 68.3383 20.376C69.3409 21.5173 69.8423 23.0427 69.8423 24.952C69.8423 26.2107 69.6236 27.3307 69.1863 28.312C68.7596 29.2827 68.1356 30.0507 67.3143 30.616C66.5036 31.1707 65.5223 31.448 64.3703 31.448ZM64.3703 28.664C65.0743 28.664 65.6183 28.344 66.0023 27.704C66.3863 27.0533 66.5783 26.136 66.5783 24.952C66.5783 23.768 66.3756 22.888 65.9703 22.312C65.5756 21.7253 65.0423 21.432 64.3703 21.432C63.6983 21.432 63.1596 21.7253 62.7543 22.312C62.3596 22.888 62.1623 23.768 62.1623 24.952C62.1623 26.136 62.3436 27.0533 62.7063 27.704C63.0689 28.344 63.6236 28.664 64.3703 28.664Z" fill="#D99A00"/>
<path d="M1.28 64V52.8H2.8V57.424H8.496V52.8H10.016V64H8.496V58.864H2.8V64H1.28ZM12.1323 64V56.16H13.5723V64H12.1323ZM12.1323 54.4V52.8H13.5723V54.4H12.1323ZM18.6909 68C17.9762 68 17.3362 67.912 16.7709 67.736C16.2109 67.56 15.7682 67.2987 15.4429 66.952C15.1229 66.6053 14.9629 66.176 14.9629 65.664C14.9629 65.2373 15.0829 64.8693 15.3229 64.56C15.5682 64.256 15.9015 64.0107 16.3229 63.824C16.0722 63.7013 15.8802 63.5573 15.7469 63.392C15.6189 63.2213 15.5549 63.0347 15.5549 62.832C15.5549 62.592 15.6269 62.376 15.7709 62.184C15.9202 61.9867 16.1575 61.824 16.4829 61.696C16.0455 61.424 15.7095 61.0587 15.4749 60.6C15.2402 60.136 15.1229 59.6213 15.1229 59.056C15.1229 58.4853 15.2509 57.9707 15.5069 57.512C15.7629 57.048 16.1309 56.68 16.6109 56.408C17.0962 56.136 17.6775 56 18.3549 56C18.7175 56 19.0589 56.0533 19.3789 56.16C19.7042 56.2667 20.0029 56.416 20.2749 56.608C20.5149 56.4693 20.7975 56.3547 21.1229 56.264C21.4535 56.1733 21.8215 56.128 22.2269 56.128C22.2535 56.128 22.2749 56.128 22.2909 56.128C22.3122 56.128 22.3335 56.128 22.3549 56.128L22.1789 57.088C22.1149 57.088 22.0535 57.088 21.9949 57.088C21.9362 57.088 21.8749 57.088 21.8109 57.088C21.7575 57.088 21.6349 57.096 21.4429 57.112C21.2509 57.128 21.0749 57.1573 20.9149 57.2C21.1335 57.456 21.3015 57.744 21.4189 58.064C21.5415 58.3787 21.6029 58.7093 21.6029 59.056C21.6029 59.6533 21.4722 60.1893 21.2109 60.664C20.9549 61.1333 20.5842 61.5067 20.0989 61.784C19.6135 62.056 19.0322 62.192 18.3549 62.192C18.1629 62.192 17.9789 62.1813 17.8029 62.16C17.6269 62.1333 17.4589 62.096 17.2989 62.048C17.0535 62.128 16.9309 62.2667 16.9309 62.464C16.9309 62.5813 17.0002 62.6853 17.1389 62.776C17.2775 62.8613 17.5015 62.928 17.8109 62.976L19.9069 63.312C20.7549 63.4453 21.4082 63.6907 21.8669 64.048C22.3309 64.4053 22.5629 64.912 22.5629 65.568C22.5629 66.112 22.4029 66.5627 22.0829 66.92C21.7682 67.2827 21.3202 67.552 20.7389 67.728C20.1575 67.9093 19.4749 68 18.6909 68ZM18.8189 66.72C19.5549 66.72 20.1202 66.624 20.5149 66.432C20.9095 66.2453 21.1069 65.968 21.1069 65.6C21.1069 65.312 20.9815 65.0853 20.7309 64.92C20.4855 64.7547 20.1309 64.6293 19.6669 64.544L17.4349 64.168C17.1415 64.296 16.8855 64.4667 16.6669 64.68C16.4482 64.8987 16.3389 65.152 16.3389 65.44C16.3389 65.888 16.5629 66.2133 17.0109 66.416C17.4642 66.6187 18.0669 66.72 18.8189 66.72ZM18.3549 61.04C18.9629 61.04 19.4269 60.8587 19.7469 60.496C20.0669 60.128 20.2269 59.6533 20.2269 59.072C20.2269 58.512 20.0669 58.0533 19.7469 57.696C19.4269 57.3333 18.9629 57.152 18.3549 57.152C17.7469 57.152 17.2855 57.3333 16.9709 57.696C16.6562 58.0533 16.4989 58.512 16.4989 59.072C16.4989 59.6533 16.6562 60.128 16.9709 60.496C17.2855 60.8587 17.7469 61.04 18.3549 61.04ZM23.4756 64V52H24.9316V57.52L24.4196 57.488C24.7876 57.024 25.1823 56.6613 25.6036 56.4C26.0303 56.1333 26.5743 56 27.2356 56C27.913 56 28.4783 56.152 28.9316 56.456C29.385 56.76 29.7236 57.184 29.9476 57.728C30.177 58.272 30.2916 58.9067 30.2916 59.632V64H28.8516V59.808C28.8516 58.944 28.6916 58.3067 28.3716 57.896C28.057 57.4853 27.5716 57.28 26.9156 57.28C26.4196 57.28 25.9796 57.4133 25.5956 57.68C25.217 57.9467 24.9156 58.304 24.6916 58.752L24.9316 57.872V64H23.4756ZM35.9235 64.16C35.0008 64.16 34.2248 63.9707 33.5955 63.592C32.9662 63.2133 32.4888 62.712 32.1635 62.088C31.8435 61.4587 31.6835 60.768 31.6835 60.016C31.6835 59.2853 31.8328 58.616 32.1315 58.008C32.4355 57.4 32.8728 56.9147 33.4435 56.552C34.0195 56.184 34.7128 56 35.5235 56C36.1742 56 36.7528 56.1307 37.2595 56.392C37.7715 56.648 38.1715 57.024 38.4595 57.52C38.7528 58.0107 38.8995 58.608 38.8995 59.312C38.8995 59.424 38.8942 59.5467 38.8835 59.68C38.8782 59.808 38.8622 59.9413 38.8355 60.08H33.1555C33.2248 60.8053 33.3982 61.3707 33.6755 61.776C33.9528 62.1813 34.3022 62.4667 34.7235 62.632C35.1448 62.7973 35.6035 62.88 36.0995 62.88C36.4622 62.88 36.8408 62.8427 37.2355 62.768C37.6302 62.6933 38.0035 62.576 38.3555 62.416L38.5475 63.552C38.2435 63.6853 37.8728 63.8213 37.4355 63.96C36.9982 64.0933 36.4942 64.16 35.9235 64.16ZM33.2835 59.088H37.4115C37.4115 58.72 37.3422 58.4 37.2035 58.128C37.0648 57.856 36.8542 57.648 36.5715 57.504C36.2888 57.3547 35.9288 57.28 35.4915 57.28C34.8515 57.28 34.3582 57.44 34.0115 57.76C33.6702 58.0747 33.4275 58.5173 33.2835 59.088ZM40.351 64V56.16H41.535L41.711 57.456C42.111 56.96 42.4923 56.5947 42.855 56.36C43.223 56.12 43.615 56 44.031 56C44.1643 56 44.287 56.016 44.399 56.048L44.255 57.632C44.1857 57.616 44.111 57.6053 44.031 57.6C43.9563 57.5893 43.871 57.584 43.775 57.584C43.359 57.584 42.975 57.6773 42.623 57.864C42.2763 58.0453 42.031 58.2453 41.887 58.464V64H40.351ZM54.3033 64.224C53.2153 64.224 52.2446 63.9867 51.3913 63.512C50.5433 63.032 49.8739 62.3573 49.3833 61.488C48.8979 60.6133 48.6553 59.584 48.6553 58.4C48.6553 57.216 48.9006 56.1893 49.3913 55.32C49.8873 54.4453 50.5646 53.7707 51.4233 53.296C52.2873 52.816 53.2686 52.576 54.3673 52.576C54.9379 52.576 55.4819 52.6373 55.9993 52.76C56.5166 52.8827 56.9699 53.04 57.3593 53.232L57.1993 54.64C56.7993 54.448 56.3593 54.2853 55.8793 54.152C55.3993 54.0187 54.8899 53.952 54.3513 53.952C53.4713 53.952 52.7326 54.152 52.1353 54.552C51.5379 54.9467 51.0846 55.48 50.7753 56.152C50.4713 56.824 50.3193 57.5733 50.3193 58.4C50.3193 59.2267 50.4686 59.976 50.7673 60.648C51.0713 61.32 51.5193 61.856 52.1113 62.256C52.7086 62.6507 53.4446 62.848 54.3193 62.848C54.8739 62.848 55.3859 62.7893 55.8553 62.672C56.3299 62.5493 56.7779 62.384 57.1993 62.176L57.3593 63.584C56.9593 63.7653 56.5086 63.9173 56.0073 64.04C55.5059 64.1627 54.9379 64.224 54.3033 64.224ZM62.0719 64.16C61.2505 64.16 60.5492 63.9787 59.9679 63.616C59.3919 63.248 58.9492 62.7573 58.6399 62.144C58.3359 61.5253 58.1839 60.8373 58.1839 60.08C58.1839 59.3227 58.3359 58.6373 58.6399 58.024C58.9492 57.4053 59.3919 56.9147 59.9679 56.552C60.5492 56.184 61.2505 56 62.0719 56C62.8879 56 63.5865 56.184 64.1679 56.552C64.7492 56.9147 65.1919 57.4053 65.4959 58.024C65.8052 58.6373 65.9599 59.3227 65.9599 60.08C65.9599 60.8373 65.8052 61.5253 65.4959 62.144C65.1919 62.7573 64.7492 63.248 64.1679 63.616C63.5865 63.9787 62.8879 64.16 62.0719 64.16ZM62.0719 62.88C62.8505 62.88 63.4479 62.6347 63.8639 62.144C64.2799 61.648 64.4879 60.96 64.4879 60.08C64.4879 59.2 64.2799 58.5147 63.8639 58.024C63.4479 57.528 62.8505 57.28 62.0719 57.28C61.2985 57.28 60.7012 57.528 60.2799 58.024C59.8639 58.5147 59.6559 59.2 59.6559 60.08C59.6559 60.96 59.8639 61.648 60.2799 62.144C60.7012 62.6347 61.2985 62.88 62.0719 62.88ZM67.4448 64V56.16H68.5648L68.8528 57.664L68.2928 57.424C68.8208 56.8373 69.3354 56.4533 69.8368 56.272C70.3434 56.0907 70.8368 56 71.3168 56C72.4634 56 73.2821 56.3307 73.7728 56.992C74.2688 57.6533 74.5168 58.5493 74.5168 59.68V64H73.0768V59.68C73.0768 58.848 72.9221 58.24 72.6128 57.856C72.3034 57.472 71.7754 57.28 71.0288 57.28C70.5008 57.28 70.0154 57.3973 69.5728 57.632C69.1354 57.8613 68.8474 58.2293 68.7088 58.736L68.8848 57.856V64H67.4448ZM78.3391 64L75.3471 56.16H76.9471L79.1391 62.416L81.3151 56.16H82.9311L79.9551 64H78.3391ZM87.6735 64.16C86.7508 64.16 85.9748 63.9707 85.3455 63.592C84.7162 63.2133 84.2388 62.712 83.9135 62.088C83.5935 61.4587 83.4335 60.768 83.4335 60.016C83.4335 59.2853 83.5828 58.616 83.8815 58.008C84.1855 57.4 84.6228 56.9147 85.1935 56.552C85.7695 56.184 86.4628 56 87.2735 56C87.9242 56 88.5028 56.1307 89.0095 56.392C89.5215 56.648 89.9215 57.024 90.2095 57.52C90.5028 58.0107 90.6495 58.608 90.6495 59.312C90.6495 59.424 90.6442 59.5467 90.6335 59.68C90.6282 59.808 90.6122 59.9413 90.5855 60.08H84.9055C84.9748 60.8053 85.1482 61.3707 85.4255 61.776C85.7028 62.1813 86.0522 62.4667 86.4735 62.632C86.8948 62.7973 87.3535 62.88 87.8495 62.88C88.2122 62.88 88.5908 62.8427 88.9855 62.768C89.3802 62.6933 89.7535 62.576 90.1055 62.416L90.2975 63.552C89.9935 63.6853 89.6228 63.8213 89.1855 63.96C88.7482 64.0933 88.2442 64.16 87.6735 64.16ZM85.0335 59.088H89.1615C89.1615 58.72 89.0922 58.4 88.9535 58.128C88.8148 57.856 88.6042 57.648 88.3215 57.504C88.0388 57.3547 87.6788 57.28 87.2415 57.28C86.6015 57.28 86.1082 57.44 85.7615 57.76C85.4202 58.0747 85.1775 58.5173 85.0335 59.088ZM92.101 64V56.16H93.285L93.461 57.456C93.861 56.96 94.2423 56.5947 94.605 56.36C94.973 56.12 95.365 56 95.781 56C95.9143 56 96.037 56.016 96.149 56.048L96.005 57.632C95.9357 57.616 95.861 57.6053 95.781 57.6C95.7063 57.5893 95.621 57.584 95.525 57.584C95.109 57.584 94.725 57.6773 94.373 57.864C94.0263 58.0453 93.781 58.2453 93.637 58.464V64H92.101ZM99.3875 64.16C98.6942 64.16 98.1182 64.0773 97.6595 63.912C97.2062 63.7467 96.8862 63.6 96.6995 63.472L96.8755 62.08C97.0462 62.2293 97.3475 62.4 97.7795 62.592C98.2115 62.784 98.7262 62.88 99.3235 62.88C99.8302 62.88 100.217 62.7947 100.484 62.624C100.755 62.4533 100.891 62.2133 100.891 61.904C100.891 61.632 100.804 61.4133 100.628 61.248C100.457 61.0773 100.249 60.944 100.004 60.848C99.7635 60.7467 99.5368 60.6667 99.3235 60.608C98.9662 60.512 98.5955 60.392 98.2115 60.248C97.8328 60.0987 97.5128 59.8773 97.2515 59.584C96.9902 59.2907 96.8595 58.88 96.8595 58.352C96.8595 57.952 96.9555 57.5733 97.1475 57.216C97.3395 56.8533 97.6515 56.56 98.0835 56.336C98.5155 56.112 99.0888 56 99.8035 56C100.326 56 100.75 56.056 101.076 56.168C101.406 56.2747 101.692 56.3893 101.932 56.512L101.756 57.824C101.526 57.632 101.26 57.4693 100.956 57.336C100.652 57.2027 100.278 57.136 99.8355 57.136C99.3875 57.136 99.0222 57.2213 98.7395 57.392C98.4568 57.5573 98.3155 57.824 98.3155 58.192C98.3155 58.56 98.4648 58.8213 98.7635 58.976C99.0675 59.1307 99.5262 59.3013 100.14 59.488C100.332 59.5413 100.553 59.6187 100.804 59.72C101.06 59.8213 101.308 59.9573 101.548 60.128C101.788 60.2987 101.985 60.5227 102.14 60.8C102.3 61.072 102.38 61.4133 102.38 61.824C102.38 62.1707 102.297 62.5253 102.132 62.888C101.966 63.2453 101.668 63.5467 101.236 63.792C100.804 64.0373 100.188 64.16 99.3875 64.16ZM103.789 64V56.16H105.229V64H103.789ZM103.789 54.4V52.8H105.229V54.4H103.789ZM110.603 64.16C109.782 64.16 109.08 63.9787 108.499 63.616C107.923 63.248 107.48 62.7573 107.171 62.144C106.867 61.5253 106.715 60.8373 106.715 60.08C106.715 59.3227 106.867 58.6373 107.171 58.024C107.48 57.4053 107.923 56.9147 108.499 56.552C109.08 56.184 109.782 56 110.603 56C111.419 56 112.118 56.184 112.699 56.552C113.28 56.9147 113.723 57.4053 114.027 58.024C114.336 58.6373 114.491 59.3227 114.491 60.08C114.491 60.8373 114.336 61.5253 114.027 62.144C113.723 62.7573 113.28 63.248 112.699 63.616C112.118 63.9787 111.419 64.16 110.603 64.16ZM110.603 62.88C111.382 62.88 111.979 62.6347 112.395 62.144C112.811 61.648 113.019 60.96 113.019 60.08C113.019 59.2 112.811 58.5147 112.395 58.024C111.979 57.528 111.382 57.28 110.603 57.28C109.83 57.28 109.232 57.528 108.811 58.024C108.395 58.5147 108.187 59.2 108.187 60.08C108.187 60.96 108.395 61.648 108.811 62.144C109.232 62.6347 109.83 62.88 110.603 62.88ZM115.976 64V56.16H117.096L117.384 57.664L116.824 57.424C117.352 56.8373 117.867 56.4533 118.368 56.272C118.875 56.0907 119.368 56 119.848 56C120.995 56 121.813 56.3307 122.304 56.992C122.8 57.6533 123.048 58.5493 123.048 59.68V64H121.608V59.68C121.608 58.848 121.453 58.24 121.144 57.856C120.835 57.472 120.307 57.28 119.56 57.28C119.032 57.28 118.547 57.3973 118.104 57.632C117.667 57.8613 117.379 58.2293 117.24 58.736L117.416 57.856V64H115.976ZM1.28 86V74.8H4.912C5.69067 74.8 6.37067 74.92 6.952 75.16C7.53333 75.4 7.984 75.7707 8.304 76.272C8.624 76.7733 8.784 77.4187 8.784 78.208C8.784 78.976 8.616 79.6187 8.28 80.136C7.94933 80.6533 7.46667 81.0613 6.832 81.36L9.344 86H7.488L5.216 81.632C5.2 81.632 5.18667 81.632 5.176 81.632C5.16533 81.632 5.152 81.632 5.136 81.632H2.88V86H1.28ZM2.88 80.272H4.896C5.65867 80.272 6.232 80.088 6.616 79.72C7.00533 79.352 7.2 78.848 7.2 78.208C7.2 77.5573 7.00533 77.0533 6.616 76.696C6.232 76.3387 5.65867 76.16 4.896 76.16H2.88V80.272ZM12.3625 86.16C11.8772 86.16 11.4532 86.0613 11.0905 85.864C10.7278 85.6667 10.4452 85.3973 10.2425 85.056C10.0452 84.7147 9.9465 84.3253 9.9465 83.888C9.9465 83.4453 10.0425 83.0667 10.2345 82.752C10.4318 82.432 10.6932 82.168 11.0185 81.96C11.3492 81.7467 11.7172 81.5787 12.1225 81.456C12.5278 81.328 12.9465 81.2373 13.3785 81.184C13.8158 81.1253 14.2345 81.0933 14.6345 81.088C14.6345 80.3413 14.4878 79.8533 14.1945 79.624C13.9012 79.3947 13.4772 79.28 12.9225 79.28C12.6292 79.28 12.3145 79.3253 11.9785 79.416C11.6478 79.5067 11.2745 79.696 10.8585 79.984L10.6505 78.816C10.9652 78.576 11.3572 78.3813 11.8265 78.232C12.2958 78.0773 12.7892 78 13.3065 78C13.9678 78 14.5012 78.1173 14.9065 78.352C15.3118 78.5813 15.6078 78.9707 15.7945 79.52C15.9812 80.0693 16.0745 80.816 16.0745 81.76V83.36C16.0745 83.7333 16.0905 84.0427 16.1225 84.288C16.1598 84.528 16.2398 84.7093 16.3625 84.832C16.4905 84.9493 16.6932 85.008 16.9705 85.008H17.1145L16.8905 86.16H16.7785C16.3145 86.16 15.9545 86.1147 15.6985 86.024C15.4478 85.9333 15.2558 85.8027 15.1225 85.632C14.9892 85.4613 14.8692 85.2533 14.7625 85.008C14.4692 85.3493 14.1225 85.6267 13.7225 85.84C13.3225 86.0533 12.8692 86.16 12.3625 86.16ZM12.6345 85.008C13.0185 85.008 13.3892 84.912 13.7465 84.72C14.1092 84.528 14.4052 84.272 14.6345 83.952V82.08C13.8718 82.1067 13.2532 82.1813 12.7785 82.304C12.3092 82.4267 11.9652 82.6107 11.7465 82.856C11.5278 83.1013 11.4185 83.4187 11.4185 83.808C11.4185 84.2293 11.5305 84.536 11.7545 84.728C11.9838 84.9147 12.2772 85.008 12.6345 85.008ZM20.7738 86.16C20.2778 86.16 19.8804 86.0693 19.5818 85.888C19.2831 85.7067 19.0644 85.4747 18.9258 85.192C18.7924 84.904 18.7258 84.6027 18.7258 84.288V79.28H17.3818L17.5098 78.16H18.7258V76.224L20.1658 76.08V78.16H22.2298V79.28H20.1658V83.408C20.1658 83.9093 20.1951 84.272 20.2538 84.496C20.3124 84.72 20.4564 84.8613 20.6858 84.92C20.9204 84.9787 21.2964 85.008 21.8138 85.008H22.1818L22.0698 86.16H20.7738ZM27.1579 86.16C26.2352 86.16 25.4592 85.9707 24.8299 85.592C24.2005 85.2133 23.7232 84.712 23.3979 84.088C23.0779 83.4587 22.9179 82.768 22.9179 82.016C22.9179 81.2853 23.0672 80.616 23.3659 80.008C23.6699 79.4 24.1072 78.9147 24.6779 78.552C25.2539 78.184 25.9472 78 26.7579 78C27.4085 78 27.9872 78.1307 28.4939 78.392C29.0059 78.648 29.4059 79.024 29.6939 79.52C29.9872 80.0107 30.1339 80.608 30.1339 81.312C30.1339 81.424 30.1285 81.5467 30.1179 81.68C30.1125 81.808 30.0965 81.9413 30.0699 82.08H24.3899C24.4592 82.8053 24.6325 83.3707 24.9099 83.776C25.1872 84.1813 25.5365 84.4667 25.9579 84.632C26.3792 84.7973 26.8379 84.88 27.3339 84.88C27.6965 84.88 28.0752 84.8427 28.4699 84.768C28.8645 84.6933 29.2379 84.576 29.5899 84.416L29.7819 85.552C29.4779 85.6853 29.1072 85.8213 28.6699 85.96C28.2325 86.0933 27.7285 86.16 27.1579 86.16ZM24.5179 81.088H28.6459C28.6459 80.72 28.5765 80.4 28.4379 80.128C28.2992 79.856 28.0885 79.648 27.8059 79.504C27.5232 79.3547 27.1632 79.28 26.7259 79.28C26.0859 79.28 25.5925 79.44 25.2459 79.76C24.9045 80.0747 24.6619 80.5173 24.5179 81.088ZM33.8094 86.16C33.116 86.16 32.54 86.0773 32.0814 85.912C31.628 85.7467 31.308 85.6 31.1214 85.472L31.2974 84.08C31.468 84.2293 31.7694 84.4 32.2014 84.592C32.6334 84.784 33.148 84.88 33.7454 84.88C34.252 84.88 34.6387 84.7947 34.9054 84.624C35.1774 84.4533 35.3134 84.2133 35.3134 83.904C35.3134 83.632 35.2254 83.4133 35.0494 83.248C34.8787 83.0773 34.6707 82.944 34.4254 82.848C34.1854 82.7467 33.9587 82.6667 33.7454 82.608C33.388 82.512 33.0174 82.392 32.6334 82.248C32.2547 82.0987 31.9347 81.8773 31.6734 81.584C31.412 81.2907 31.2814 80.88 31.2814 80.352C31.2814 79.952 31.3774 79.5733 31.5694 79.216C31.7614 78.8533 32.0734 78.56 32.5054 78.336C32.9374 78.112 33.5107 78 34.2254 78C34.748 78 35.172 78.056 35.4974 78.168C35.828 78.2747 36.1134 78.3893 36.3534 78.512L36.1774 79.824C35.948 79.632 35.6814 79.4693 35.3774 79.336C35.0734 79.2027 34.7 79.136 34.2574 79.136C33.8094 79.136 33.444 79.2213 33.1614 79.392C32.8787 79.5573 32.7374 79.824 32.7374 80.192C32.7374 80.56 32.8867 80.8213 33.1854 80.976C33.4894 81.1307 33.948 81.3013 34.5614 81.488C34.7534 81.5413 34.9747 81.6187 35.2254 81.72C35.4814 81.8213 35.7294 81.9573 35.9694 82.128C36.2094 82.2987 36.4067 82.5227 36.5614 82.8C36.7214 83.072 36.8014 83.4133 36.8014 83.824C36.8014 84.1707 36.7187 84.5253 36.5534 84.888C36.388 85.2453 36.0894 85.5467 35.6574 85.792C35.2254 86.0373 34.6094 86.16 33.8094 86.16Z" fill="#757575"/>
<line x1="186.5" y1="14.5" x2="186.5" y2="76.5" stroke="#AEAEAE"/>
<path d="M245.674 25.5917L248.161 27.1795L245.674 31.0845C245.092 31.0845 244.509 30.8619 244.065 30.4175L239.857 26.2087L230.857 35.2088C230.415 35.6504 229.698 35.6504 229.257 35.2088L227.64 33.5918C227.198 33.1502 227.198 32.4332 227.64 31.9916L238.248 21.3829C239.136 20.4948 240.577 20.4948 241.466 21.3829L245.674 25.5917Z" fill="#D99A00"/>
<path d="M263.37 12.247V23.734C263.37 24.3587 262.863 24.8658 262.238 24.8658H259.952C259.326 24.8658 258.82 24.3587 258.82 23.734V18.8821L247.284 30.4177C246.84 30.8621 246.258 31.0847 245.676 31.0847V25.5919L255.603 15.665H250.752C250.127 15.665 249.62 15.1579 249.62 14.5332V12.247C249.62 11.6216 250.127 11.1152 250.752 11.1152H262.238C262.863 11.1152 263.37 11.6216 263.37 12.247Z" fill="#D99A00"/>
<path d="M223.28 63.5V52.3H230.112V53.676H224.8V56.956H229.024V58.332H224.8V62.124H230.256V63.5H223.28ZM231.695 63.5V55.66H232.815L233.103 57.164L232.543 56.924C233.071 56.3373 233.585 55.9533 234.087 55.772C234.593 55.5907 235.087 55.5 235.567 55.5C236.713 55.5 237.532 55.8307 238.023 56.492C238.519 57.1533 238.767 58.0493 238.767 59.18V63.5H237.327V59.18C237.327 58.348 237.172 57.74 236.863 57.356C236.553 56.972 236.025 56.78 235.279 56.78C234.751 56.78 234.265 56.8973 233.823 57.132C233.385 57.3613 233.097 57.7293 232.959 58.236L233.135 57.356V63.5H231.695ZM240.616 63.5V51.5H242.072V57.02L241.56 56.988C241.928 56.524 242.323 56.1613 242.744 55.9C243.171 55.6333 243.715 55.5 244.376 55.5C245.054 55.5 245.619 55.652 246.072 55.956C246.526 56.26 246.864 56.684 247.088 57.228C247.318 57.772 247.432 58.4067 247.432 59.132V63.5H245.992V59.308C245.992 58.444 245.832 57.8067 245.512 57.396C245.198 56.9853 244.712 56.78 244.056 56.78C243.56 56.78 243.12 56.9133 242.736 57.18C242.358 57.4467 242.056 57.804 241.832 58.252L242.072 57.372V63.5H240.616ZM251.128 63.66C250.643 63.66 250.219 63.5613 249.856 63.364C249.493 63.1667 249.211 62.8973 249.008 62.556C248.811 62.2147 248.712 61.8253 248.712 61.388C248.712 60.9453 248.808 60.5667 249 60.252C249.197 59.932 249.459 59.668 249.784 59.46C250.115 59.2467 250.483 59.0787 250.888 58.956C251.293 58.828 251.712 58.7373 252.144 58.684C252.581 58.6253 253 58.5933 253.4 58.588C253.4 57.8413 253.253 57.3533 252.96 57.124C252.667 56.8947 252.243 56.78 251.688 56.78C251.395 56.78 251.08 56.8253 250.744 56.916C250.413 57.0067 250.04 57.196 249.624 57.484L249.416 56.316C249.731 56.076 250.123 55.8813 250.592 55.732C251.061 55.5773 251.555 55.5 252.072 55.5C252.733 55.5 253.267 55.6173 253.672 55.852C254.077 56.0813 254.373 56.4707 254.56 57.02C254.747 57.5693 254.84 58.316 254.84 59.26V60.86C254.84 61.2333 254.856 61.5427 254.888 61.788C254.925 62.028 255.005 62.2093 255.128 62.332C255.256 62.4493 255.459 62.508 255.736 62.508H255.88L255.656 63.66H255.544C255.08 63.66 254.72 63.6147 254.464 63.524C254.213 63.4333 254.021 63.3027 253.888 63.132C253.755 62.9613 253.635 62.7533 253.528 62.508C253.235 62.8493 252.888 63.1267 252.488 63.34C252.088 63.5533 251.635 63.66 251.128 63.66ZM251.4 62.508C251.784 62.508 252.155 62.412 252.512 62.22C252.875 62.028 253.171 61.772 253.4 61.452V59.58C252.637 59.6067 252.019 59.6813 251.544 59.804C251.075 59.9267 250.731 60.1107 250.512 60.356C250.293 60.6013 250.184 60.9187 250.184 61.308C250.184 61.7293 250.296 62.036 250.52 62.228C250.749 62.4147 251.043 62.508 251.4 62.508ZM256.992 63.5V55.66H258.112L258.4 57.164L257.84 56.924C258.368 56.3373 258.882 55.9533 259.384 55.772C259.89 55.5907 260.384 55.5 260.864 55.5C262.01 55.5 262.829 55.8307 263.32 56.492C263.816 57.1533 264.064 58.0493 264.064 59.18V63.5H262.624V59.18C262.624 58.348 262.469 57.74 262.16 57.356C261.85 56.972 261.322 56.78 260.576 56.78C260.048 56.78 259.562 56.8973 259.12 57.132C258.682 57.3613 258.394 57.7293 258.256 58.236L258.432 57.356V63.5H256.992ZM269.529 63.66C268.644 63.66 267.9 63.4813 267.297 63.124C266.7 62.7613 266.246 62.276 265.937 61.668C265.633 61.0547 265.481 60.3747 265.481 59.628C265.481 58.8493 265.628 58.148 265.921 57.524C266.22 56.9 266.676 56.4067 267.289 56.044C267.902 55.6813 268.686 55.5 269.641 55.5C270.052 55.5 270.438 55.5427 270.801 55.628C271.169 55.708 271.497 55.82 271.785 55.964L271.561 57.228C271.268 57.0893 270.956 56.98 270.625 56.9C270.3 56.82 269.961 56.78 269.609 56.78C268.745 56.78 268.086 57.0253 267.633 57.516C267.18 58.0067 266.953 58.6893 266.953 59.564C266.953 60.4173 267.169 61.1027 267.601 61.62C268.033 62.1373 268.692 62.396 269.577 62.396C269.94 62.396 270.286 62.3533 270.617 62.268C270.953 62.1827 271.273 62.0653 271.577 61.916L271.769 63.068C271.556 63.2173 271.244 63.3533 270.833 63.476C270.422 63.5987 269.988 63.66 269.529 63.66ZM276.845 63.66C275.923 63.66 275.147 63.4707 274.517 63.092C273.888 62.7133 273.411 62.212 273.085 61.588C272.765 60.9587 272.605 60.268 272.605 59.516C272.605 58.7853 272.755 58.116 273.053 57.508C273.357 56.9 273.795 56.4147 274.365 56.052C274.941 55.684 275.635 55.5 276.445 55.5C277.096 55.5 277.675 55.6307 278.181 55.892C278.693 56.148 279.093 56.524 279.381 57.02C279.675 57.5107 279.821 58.108 279.821 58.812C279.821 58.924 279.816 59.0467 279.805 59.18C279.8 59.308 279.784 59.4413 279.757 59.58H274.077C274.147 60.3053 274.32 60.8707 274.597 61.276C274.875 61.6813 275.224 61.9667 275.645 62.132C276.067 62.2973 276.525 62.38 277.021 62.38C277.384 62.38 277.763 62.3427 278.157 62.268C278.552 62.1933 278.925 62.076 279.277 61.916L279.469 63.052C279.165 63.1853 278.795 63.3213 278.357 63.46C277.92 63.5933 277.416 63.66 276.845 63.66ZM274.205 58.588H278.333C278.333 58.22 278.264 57.9 278.125 57.628C277.987 57.356 277.776 57.148 277.493 57.004C277.211 56.8547 276.851 56.78 276.413 56.78C275.773 56.78 275.28 56.94 274.933 57.26C274.592 57.5747 274.349 58.0173 274.205 58.588ZM284.377 63.66C283.71 63.66 283.108 63.4787 282.569 63.116C282.03 62.7533 281.601 62.2653 281.281 61.652C280.966 61.0387 280.809 60.3533 280.809 59.596C280.809 58.876 280.953 58.204 281.241 57.58C281.534 56.956 281.948 56.4547 282.481 56.076C283.014 55.692 283.646 55.5 284.377 55.5C284.9 55.5 285.404 55.6147 285.889 55.844C286.38 56.068 286.777 56.444 287.081 56.972L286.777 57.18V51.5H288.217V63.5H286.937L286.665 61.836L287.033 62.092C286.804 62.6093 286.444 63.0013 285.953 63.268C285.462 63.5293 284.937 63.66 284.377 63.66ZM284.633 62.38C284.996 62.38 285.353 62.2867 285.705 62.1C286.062 61.9133 286.356 61.6173 286.585 61.212C286.82 60.8013 286.937 60.2627 286.937 59.596C286.937 58.9773 286.82 58.46 286.585 58.044C286.356 57.6227 286.062 57.308 285.705 57.1C285.353 56.8867 284.996 56.78 284.633 56.78C284.142 56.78 283.721 56.9027 283.369 57.148C283.017 57.3933 282.748 57.7293 282.561 58.156C282.374 58.5773 282.281 59.0573 282.281 59.596C282.281 60.1027 282.374 60.5667 282.561 60.988C282.748 61.4093 283.017 61.748 283.369 62.004C283.721 62.2547 284.142 62.38 284.633 62.38ZM294.046 63.5V52.3H298.19C299.272 52.3 300.232 52.5213 301.07 52.964C301.907 53.4067 302.563 54.0467 303.038 54.884C303.518 55.716 303.758 56.7213 303.758 57.9C303.758 59.0787 303.518 60.0867 303.038 60.924C302.563 61.756 301.907 62.3933 301.07 62.836C300.232 63.2787 299.272 63.5 298.19 63.5H294.046ZM295.566 62.124H298.19C299.043 62.124 299.758 61.948 300.334 61.596C300.915 61.2387 301.352 60.7427 301.646 60.108C301.944 59.4733 302.094 58.7373 302.094 57.9C302.094 57.0627 301.944 56.3267 301.646 55.692C301.352 55.0573 300.915 54.564 300.334 54.212C299.758 53.8547 299.043 53.676 298.19 53.676H295.566V62.124ZM307.066 63.66C306.58 63.66 306.156 63.5613 305.794 63.364C305.431 63.1667 305.148 62.8973 304.946 62.556C304.748 62.2147 304.65 61.8253 304.65 61.388C304.65 60.9453 304.746 60.5667 304.938 60.252C305.135 59.932 305.396 59.668 305.722 59.46C306.052 59.2467 306.42 59.0787 306.826 58.956C307.231 58.828 307.65 58.7373 308.082 58.684C308.519 58.6253 308.938 58.5933 309.338 58.588C309.338 57.8413 309.191 57.3533 308.898 57.124C308.604 56.8947 308.18 56.78 307.626 56.78C307.332 56.78 307.018 56.8253 306.682 56.916C306.351 57.0067 305.978 57.196 305.562 57.484L305.354 56.316C305.668 56.076 306.06 55.8813 306.53 55.732C306.999 55.5773 307.492 55.5 308.01 55.5C308.671 55.5 309.204 55.6173 309.61 55.852C310.015 56.0813 310.311 56.4707 310.498 57.02C310.684 57.5693 310.778 58.316 310.778 59.26V60.86C310.778 61.2333 310.794 61.5427 310.826 61.788C310.863 62.028 310.943 62.2093 311.066 62.332C311.194 62.4493 311.396 62.508 311.674 62.508H311.818L311.594 63.66H311.482C311.018 63.66 310.658 63.6147 310.402 63.524C310.151 63.4333 309.959 63.3027 309.826 63.132C309.692 62.9613 309.572 62.7533 309.466 62.508C309.172 62.8493 308.826 63.1267 308.426 63.34C308.026 63.5533 307.572 63.66 307.066 63.66ZM307.338 62.508C307.722 62.508 308.092 62.412 308.45 62.22C308.812 62.028 309.108 61.772 309.338 61.452V59.58C308.575 59.6067 307.956 59.6813 307.482 59.804C307.012 59.9267 306.668 60.1107 306.45 60.356C306.231 60.6013 306.122 60.9187 306.122 61.308C306.122 61.7293 306.234 62.036 306.458 62.228C306.687 62.4147 306.98 62.508 307.338 62.508ZM315.477 63.66C314.981 63.66 314.584 63.5693 314.285 63.388C313.986 63.2067 313.768 62.9747 313.629 62.692C313.496 62.404 313.429 62.1027 313.429 61.788V56.78H312.085L312.213 55.66H313.429V53.724L314.869 53.58V55.66H316.933V56.78H314.869V60.908C314.869 61.4093 314.898 61.772 314.957 61.996C315.016 62.22 315.16 62.3613 315.389 62.42C315.624 62.4787 316 62.508 316.517 62.508H316.885L316.773 63.66H315.477ZM319.988 63.66C319.502 63.66 319.078 63.5613 318.716 63.364C318.353 63.1667 318.07 62.8973 317.868 62.556C317.67 62.2147 317.572 61.8253 317.572 61.388C317.572 60.9453 317.668 60.5667 317.86 60.252C318.057 59.932 318.318 59.668 318.644 59.46C318.974 59.2467 319.342 59.0787 319.748 58.956C320.153 58.828 320.572 58.7373 321.004 58.684C321.441 58.6253 321.86 58.5933 322.26 58.588C322.26 57.8413 322.113 57.3533 321.82 57.124C321.526 56.8947 321.102 56.78 320.548 56.78C320.254 56.78 319.94 56.8253 319.604 56.916C319.273 57.0067 318.9 57.196 318.484 57.484L318.276 56.316C318.59 56.076 318.982 55.8813 319.452 55.732C319.921 55.5773 320.414 55.5 320.932 55.5C321.593 55.5 322.126 55.6173 322.532 55.852C322.937 56.0813 323.233 56.4707 323.42 57.02C323.606 57.5693 323.7 58.316 323.7 59.26V60.86C323.7 61.2333 323.716 61.5427 323.748 61.788C323.785 62.028 323.865 62.2093 323.988 62.332C324.116 62.4493 324.318 62.508 324.596 62.508H324.74L324.516 63.66H324.404C323.94 63.66 323.58 63.6147 323.324 63.524C323.073 63.4333 322.881 63.3027 322.748 63.132C322.614 62.9613 322.494 62.7533 322.388 62.508C322.094 62.8493 321.748 63.1267 321.348 63.34C320.948 63.5533 320.494 63.66 319.988 63.66ZM320.26 62.508C320.644 62.508 321.014 62.412 321.372 62.22C321.734 62.028 322.03 61.772 322.26 61.452V59.58C321.497 59.6067 320.878 59.6813 320.404 59.804C319.934 59.9267 319.59 60.1107 319.372 60.356C319.153 60.6013 319.044 60.9187 319.044 61.308C319.044 61.7293 319.156 62.036 319.38 62.228C319.609 62.4147 319.902 62.508 320.26 62.508ZM229.328 82.476H224.528V81.1H229.328V82.476ZM226.704 75.788H227.152L223.712 85.5H222.112L226.128 74.3H227.728L231.744 85.5H230.144L226.704 75.788ZM232.835 85.5V77.66H233.955L234.243 79.164L233.683 78.924C234.211 78.3373 234.726 77.9533 235.227 77.772C235.734 77.5907 236.227 77.5 236.707 77.5C237.854 77.5 238.673 77.8307 239.163 78.492C239.659 79.1533 239.907 80.0493 239.907 81.18V85.5H238.467V81.18C238.467 80.348 238.313 79.74 238.003 79.356C237.694 78.972 237.166 78.78 236.419 78.78C235.891 78.78 235.406 78.8973 234.963 79.132C234.526 79.3613 234.238 79.7293 234.099 80.236L234.275 79.356V85.5H232.835ZM243.597 85.66C243.112 85.66 242.688 85.5613 242.325 85.364C241.962 85.1667 241.68 84.8973 241.477 84.556C241.28 84.2147 241.181 83.8253 241.181 83.388C241.181 82.9453 241.277 82.5667 241.469 82.252C241.666 81.932 241.928 81.668 242.253 81.46C242.584 81.2467 242.952 81.0787 243.357 80.956C243.762 80.828 244.181 80.7373 244.613 80.684C245.05 80.6253 245.469 80.5933 245.869 80.588C245.869 79.8413 245.722 79.3533 245.429 79.124C245.136 78.8947 244.712 78.78 244.157 78.78C243.864 78.78 243.549 78.8253 243.213 78.916C242.882 79.0067 242.509 79.196 242.093 79.484L241.885 78.316C242.2 78.076 242.592 77.8813 243.061 77.732C243.53 77.5773 244.024 77.5 244.541 77.5C245.202 77.5 245.736 77.6173 246.141 77.852C246.546 78.0813 246.842 78.4707 247.029 79.02C247.216 79.5693 247.309 80.316 247.309 81.26V82.86C247.309 83.2333 247.325 83.5427 247.357 83.788C247.394 84.028 247.474 84.2093 247.597 84.332C247.725 84.4493 247.928 84.508 248.205 84.508H248.349L248.125 85.66H248.013C247.549 85.66 247.189 85.6147 246.933 85.524C246.682 85.4333 246.49 85.3027 246.357 85.132C246.224 84.9613 246.104 84.7533 245.997 84.508C245.704 84.8493 245.357 85.1267 244.957 85.34C244.557 85.5533 244.104 85.66 243.597 85.66ZM243.869 84.508C244.253 84.508 244.624 84.412 244.981 84.22C245.344 84.028 245.64 83.772 245.869 83.452V81.58C245.106 81.6067 244.488 81.6813 244.013 81.804C243.544 81.9267 243.2 82.1107 242.981 82.356C242.762 82.6013 242.653 82.9187 242.653 83.308C242.653 83.7293 242.765 84.036 242.989 84.228C243.218 84.4147 243.512 84.508 243.869 84.508ZM251.476 85.66C250.97 85.66 250.567 85.5693 250.268 85.388C249.975 85.2013 249.764 84.964 249.636 84.676C249.508 84.388 249.444 84.0867 249.444 83.772V73.5H250.884V82.94C250.884 83.388 250.914 83.724 250.972 83.948C251.031 84.172 251.148 84.3213 251.324 84.396C251.506 84.4707 251.78 84.508 252.148 84.508L251.94 85.66H251.476ZM253.724 89.372L255.532 85.148L252.268 77.66H253.868L256.316 83.484L258.524 77.66H260.124L255.324 89.372H253.724ZM263.914 85.66C263.418 85.66 263.021 85.5693 262.722 85.388C262.424 85.2067 262.205 84.9747 262.066 84.692C261.933 84.404 261.866 84.1027 261.866 83.788V78.78H260.522L260.65 77.66H261.866V75.724L263.306 75.58V77.66H265.37V78.78H263.306V82.908C263.306 83.4093 263.336 83.772 263.394 83.996C263.453 84.22 263.597 84.3613 263.826 84.42C264.061 84.4787 264.437 84.508 264.954 84.508H265.322L265.21 85.66H263.914ZM266.601 85.5V77.66H268.041V85.5H266.601ZM266.601 75.9V74.3H268.041V75.9H266.601ZM273.592 85.66C272.706 85.66 271.962 85.4813 271.36 85.124C270.762 84.7613 270.309 84.276 270 83.668C269.696 83.0547 269.544 82.3747 269.544 81.628C269.544 80.8493 269.69 80.148 269.984 79.524C270.282 78.9 270.738 78.4067 271.352 78.044C271.965 77.6813 272.749 77.5 273.704 77.5C274.114 77.5 274.501 77.5427 274.864 77.628C275.232 77.708 275.56 77.82 275.848 77.964L275.624 79.228C275.33 79.0893 275.018 78.98 274.688 78.9C274.362 78.82 274.024 78.78 273.672 78.78C272.808 78.78 272.149 79.0253 271.696 79.516C271.242 80.0067 271.016 80.6893 271.016 81.564C271.016 82.4173 271.232 83.1027 271.664 83.62C272.096 84.1373 272.754 84.396 273.64 84.396C274.002 84.396 274.349 84.3533 274.68 84.268C275.016 84.1827 275.336 84.0653 275.64 83.916L275.832 85.068C275.618 85.2173 275.306 85.3533 274.896 85.476C274.485 85.5987 274.05 85.66 273.592 85.66ZM279.481 85.66C278.788 85.66 278.212 85.5773 277.753 85.412C277.3 85.2467 276.98 85.1 276.793 84.972L276.969 83.58C277.14 83.7293 277.441 83.9 277.873 84.092C278.305 84.284 278.82 84.38 279.417 84.38C279.924 84.38 280.311 84.2947 280.577 84.124C280.849 83.9533 280.985 83.7133 280.985 83.404C280.985 83.132 280.897 82.9133 280.721 82.748C280.551 82.5773 280.343 82.444 280.097 82.348C279.857 82.2467 279.631 82.1667 279.417 82.108C279.06 82.012 278.689 81.892 278.305 81.748C277.927 81.5987 277.607 81.3773 277.345 81.084C277.084 80.7907 276.953 80.38 276.953 79.852C276.953 79.452 277.049 79.0733 277.241 78.716C277.433 78.3533 277.745 78.06 278.177 77.836C278.609 77.612 279.183 77.5 279.897 77.5C280.42 77.5 280.844 77.556 281.169 77.668C281.5 77.7747 281.785 77.8893 282.025 78.012L281.849 79.324C281.62 79.132 281.353 78.9693 281.049 78.836C280.745 78.7027 280.372 78.636 279.929 78.636C279.481 78.636 279.116 78.7213 278.833 78.892C278.551 79.0573 278.409 79.324 278.409 79.692C278.409 80.06 278.559 80.3213 278.857 80.476C279.161 80.6307 279.62 80.8013 280.233 80.988C280.425 81.0413 280.647 81.1187 280.897 81.22C281.153 81.3213 281.401 81.4573 281.641 81.628C281.881 81.7987 282.079 82.0227 282.233 82.3C282.393 82.572 282.473 82.9133 282.473 83.324C282.473 83.6707 282.391 84.0253 282.225 84.388C282.06 84.7453 281.761 85.0467 281.329 85.292C280.897 85.5373 280.281 85.66 279.481 85.66Z" fill="#757575"/>
</svg>
