<svg width="46" height="47" viewBox="0 0 46 47" fill="none" xmlns="http://www.w3.org/2000/svg">
<path d="M22.3256 21.4083L19.8388 19.8205L22.3256 15.9155C22.9081 15.9155 23.4905 16.1381 23.9349 16.5825L28.1431 20.7913L37.1432 11.7912C37.5848 11.3496 38.3017 11.3496 38.7433 11.7912L40.3597 13.4082C40.802 13.8498 40.802 14.5668 40.3597 15.0084L29.7524 25.6171C28.8636 26.5052 27.4233 26.5052 26.5345 25.6171L22.3256 21.4083Z" fill="#D99A00"/>
<path d="M4.63033 34.753L4.63033 23.266C4.63033 22.6413 5.13671 22.1342 5.76212 22.1342L8.04825 22.1342C8.67366 22.1342 9.18004 22.6413 9.18004 23.266L9.18005 28.1179L20.7156 16.5823C21.16 16.1379 21.7418 15.9153 22.3242 15.9153L22.3242 21.4081L12.3965 31.3351L17.2484 31.3351C17.8731 31.3351 18.3802 31.8421 18.3802 32.4668L18.3802 34.753C18.3802 35.3784 17.8731 35.8848 17.2484 35.8848L5.76213 35.8848C5.13671 35.8848 4.63033 35.3784 4.63033 34.753Z" fill="#D99A00"/>
</svg>
