<svg width="52" height="53" viewBox="0 0 52 53" fill="none" xmlns="http://www.w3.org/2000/svg">
<path d="M26.7613 28.8643L29.5725 30.6591L26.7613 35.0735C26.1029 35.0735 25.4445 34.8219 24.9421 34.3195L20.1851 29.5617L10.011 39.7358C9.51184 40.235 8.70135 40.235 8.20216 39.7358L6.37499 37.9078C5.875 37.4086 5.875 36.5981 6.37499 36.099L18.3659 24.1065C19.3706 23.1025 20.9988 23.1025 22.0035 24.1065L26.7613 28.8643Z" fill="#ED4169"/>
<path d="M46.7635 13.7794V26.7647C46.7635 27.4709 46.1911 28.0441 45.4841 28.0441H42.8998C42.1928 28.0441 41.6203 27.4709 41.6203 26.7647V21.28L28.5801 34.3202C28.0778 34.8226 27.4201 35.0742 26.7617 35.0742V28.865L37.9843 17.6432H32.4996C31.7934 17.6432 31.2202 17.0699 31.2202 16.3637V13.7794C31.2202 13.0724 31.7934 12.5 32.4996 12.5H45.4841C46.1911 12.5 46.7635 13.0724 46.7635 13.7794Z" fill="#ED4169"/>
</svg>
