<svg width="46" height="46" viewBox="0 0 46 46" fill="none" xmlns="http://www.w3.org/2000/svg">
<path d="M23.6744 25.0917L26.1612 26.6795L23.6744 30.5845C23.0919 30.5845 22.5095 30.3619 22.0651 29.9175L17.8569 25.7087L8.85681 34.7088C8.41522 35.1504 7.69825 35.1504 7.25666 34.7088L5.64031 33.0918C5.19802 32.6502 5.19802 31.9332 5.64031 31.4916L16.2476 20.8829C17.1364 19.9948 18.5767 19.9948 19.4655 20.8829L23.6744 25.0917Z" fill="#ED4169"/>
<path d="M41.3697 11.747V23.234C41.3697 23.8587 40.8633 24.3658 40.2379 24.3658H37.9517C37.3263 24.3658 36.82 23.8587 36.82 23.234V18.3821L25.2844 29.9177C24.84 30.3621 24.2582 30.5847 23.6758 30.5847V25.0919L33.6035 15.165L28.7516 15.165C28.1269 15.165 27.6198 14.6579 27.6198 14.0332V11.747C27.6198 11.1216 28.1269 10.6152 28.7516 10.6152L40.2379 10.6152C40.8633 10.6152 41.3697 11.1216 41.3697 11.747Z" fill="#ED4169"/>
</svg>
