<svg width="32" height="45" viewBox="0 0 32 45" fill="none" xmlns="http://www.w3.org/2000/svg">
<path fill-rule="evenodd" clip-rule="evenodd" d="M20.8253 45.0012C20.4826 45.0012 19.8236 44.8167 19.5072 43.5777L16.1329 31.0557C16.0538 30.7394 16.2647 30.423 16.581 30.3966C18.1628 30.1857 19.6127 29.3949 20.6144 28.1559C20.7462 28.0241 20.9044 27.9713 21.0626 27.9713C22.3807 28.1031 23.6988 27.8132 24.8324 27.1541C25.1224 26.9696 25.5178 27.1277 25.5969 27.4705L29.2348 40.9678C29.7357 42.8132 28.444 43.5777 26.8886 42.5232L23.8833 40.4933L22.3016 43.7359C21.9062 44.5531 21.3789 45.0012 20.8253 45.0012Z" fill="#FA3C48"/>
<path fill-rule="evenodd" clip-rule="evenodd" d="M10.6768 45.0012C10.0969 45.0012 9.56961 44.5531 9.20055 43.7359L7.61882 40.4933L4.61355 42.5232C3.03182 43.5777 1.76644 42.8132 2.26732 40.9678L5.87893 27.4705C5.98437 27.1277 6.35344 26.9696 6.66979 27.1541C7.77699 27.8132 9.12146 28.1031 10.4132 27.9713C10.5977 27.9713 10.7559 28.0241 10.8614 28.1559C11.8895 29.3949 13.3394 30.1857 14.9211 30.3966C15.2111 30.423 15.422 30.7394 15.3429 31.0557L11.9949 43.5777C11.6522 44.8167 11.0195 45.0012 10.6768 45.0012Z" fill="#FA3C48"/>
<path fill-rule="evenodd" clip-rule="evenodd" d="M15.7381 31.5027C13.6292 31.5027 11.652 30.6064 10.2285 29.051C5.85238 29.2619 2.21441 25.6503 2.45167 21.2478C-0.817224 18.3216 -0.817224 13.181 2.45167 10.2548C2.21441 5.85238 5.85238 2.21441 10.2285 2.45167C13.181 -0.817224 18.3216 -0.817224 21.2478 2.45167C25.6503 2.21441 29.2619 5.85238 29.051 10.2548C32.3199 13.181 32.3199 18.3216 29.051 21.2478C29.2619 25.6503 25.6503 29.2619 21.2478 29.051C19.8506 30.6064 17.8471 31.5027 15.7381 31.5027Z" fill="#FFCB29"/>
<path fill-rule="evenodd" clip-rule="evenodd" d="M15.7384 29.1293C14.2357 29.1293 12.8385 28.4703 11.8631 27.3103L11.2568 26.5986L10.3078 26.6776C7.1707 26.9413 4.53449 24.3051 4.82447 21.1943L4.90356 20.2453L4.16542 19.6126C1.76647 17.6091 1.76647 13.892 4.16542 11.8885L4.90356 11.2558L4.82447 10.3068C4.53449 7.19608 7.1707 4.53351 10.3078 4.8235L11.2568 4.90258L11.8631 4.16444C13.893 1.7655 17.6101 1.7655 19.6136 4.16444L20.2463 4.90258L21.1953 4.8235C24.306 4.55988 26.9422 7.19608 26.6786 10.3068L26.5732 11.2558L27.3113 11.8885C29.7366 13.892 29.7366 17.6091 27.3113 19.6126L26.5732 20.2453L26.6786 21.1943C26.9422 24.3314 24.306 26.9413 21.1953 26.6776L20.2463 26.5986L19.6136 27.3103C18.6646 28.4703 17.241 29.1293 15.7384 29.1293Z" fill="#FFA725"/>
<path fill-rule="evenodd" clip-rule="evenodd" d="M15.7376 24.0427C11.177 24.0427 7.45996 20.3256 7.45996 15.7386C7.45996 11.178 11.177 7.46094 15.7376 7.46094C20.3246 7.46094 24.0417 11.178 24.0417 15.7386C24.0417 20.3256 20.3246 24.0427 15.7376 24.0427Z" fill="#FFCC00"/>
<path fill-rule="evenodd" clip-rule="evenodd" d="M15.7366 20.1422C15.4466 20.1422 15.2094 19.905 15.2094 19.615V13.1826C14.603 13.789 14.0494 14.6062 13.5222 14.1053C13.3377 13.8944 13.3377 13.5781 13.5222 13.3672L15.3675 11.5218C15.7102 11.2055 16.2638 11.4427 16.2638 11.8909V19.615C16.2638 19.905 16.0266 20.1422 15.7366 20.1422Z" fill="white"/>
<path fill-rule="evenodd" clip-rule="evenodd" d="M18.3207 20.1424H13.1537C12.4683 20.1424 12.4683 19.0879 13.1537 19.0879H18.3207C19.0324 19.0879 19.0324 20.1424 18.3207 20.1424Z" fill="white"/>
</svg>
